<svg width="281" height="185" viewBox="0 0 281 185" fill="none" xmlns="http://www.w3.org/2000/svg">
<path fill-rule="evenodd" clip-rule="evenodd" d="M280.808 41.0635V11.1977C280.808 11.1977 243.11 13.431 189.874 11.4494C163.421 10.4585 84.6279 0 84.6279 0L86.5938 31.3442L280.808 41.0478V41.0635Z" fill="url(#paint0_radial_4_102102)"/>
<path fill-rule="evenodd" clip-rule="evenodd" d="M7.62767 73.3513L0 60.2192L84.6277 0L86.5936 31.3442L7.62767 73.3513Z" fill="url(#paint1_linear_4_102102)"/>
<path fill-rule="evenodd" clip-rule="evenodd" d="M280.808 41.0635L156.516 75.0184L84.5491 75.1285L7.62769 73.3513L86.5936 31.3441L280.808 41.0635Z" fill="#681C39"/>
<path fill-rule="evenodd" clip-rule="evenodd" d="M146.813 75.0183L247.592 45.1682L93.4349 36.6755L18.7939 73.3512L146.813 75.0183Z" fill="#4F1C39"/>
<path fill-rule="evenodd" clip-rule="evenodd" d="M211.86 43.2023L119.07 74.6566L146.813 75.0183L247.592 45.1682L211.86 43.2023Z" fill="#3A0C2F"/>
<g style="mix-blend-mode:multiply" opacity="0.2">
<path fill-rule="evenodd" clip-rule="evenodd" d="M235.262 12.2671L239.744 39.0032L265.867 40.3086L271.45 12.2671H235.262Z" fill="#B67C3E"/>
</g>
<g style="mix-blend-mode:multiply" opacity="0.2">
<path fill-rule="evenodd" clip-rule="evenodd" d="M226.927 38.3584L229.302 12.2671H224.442L218.151 37.918L226.927 38.3584Z" fill="#B67C3E"/>
</g>
<g style="mix-blend-mode:multiply" opacity="0.2">
<path fill-rule="evenodd" clip-rule="evenodd" d="M104.57 2.56354L110.263 32.5394H117.482L110.263 3.27126L104.57 2.56354Z" fill="#B67C3E"/>
</g>
<path fill-rule="evenodd" clip-rule="evenodd" d="M79.9253 34.8985L85.7286 17.5515L98.845 31.9575L79.9253 34.8985Z" fill="#974342"/>
<path d="M150.091 7.94061L149.572 7.94641L149.834 31.3626L150.353 31.3569L150.091 7.94061Z" fill="#A22E39"/>
<path d="M190.13 11.4162L189.624 11.5308L195.361 36.8867L195.868 36.7721L190.13 11.4162Z" fill="#A22E39"/>
<path d="M256.022 39.8525L255.519 39.7582L261.448 12.22L261.951 12.3301L256.022 39.8525Z" fill="#A22E39"/>
<path fill-rule="evenodd" clip-rule="evenodd" d="M253.914 39.711L260.567 17.5515L257.579 39.8997L253.914 39.711Z" fill="#681C39"/>
<path fill-rule="evenodd" clip-rule="evenodd" d="M146.404 34.3481L150.084 26.0441L152.962 34.6626L146.404 34.3481Z" fill="#681C39"/>
<path fill-rule="evenodd" clip-rule="evenodd" d="M170.702 38.3585V44.6021L203.525 46.0176L205.601 39.8054L170.702 38.3585Z" fill="#37163B"/>
<path fill-rule="evenodd" clip-rule="evenodd" d="M170.702 38.3585L166.125 40.6703L167.337 46.0176L200.757 46.9612L203.525 46.0176L170.702 44.6021V38.3585Z" fill="#260A31"/>
<path fill-rule="evenodd" clip-rule="evenodd" d="M121.775 53.4407C121.775 53.4407 131.463 48.3766 140.742 52.1668L140.931 56.3503L121.964 57.6242L121.775 53.4407Z" fill="url(#paint2_radial_4_102102)"/>
<path fill-rule="evenodd" clip-rule="evenodd" d="M121.965 57.6242C121.965 57.6242 131.008 54.526 140.932 56.3503C140.932 56.3503 133.713 58.5993 121.965 57.6242Z" fill="#AB383B"/>
<g style="mix-blend-mode:multiply" opacity="0.2">
<path fill-rule="evenodd" clip-rule="evenodd" d="M123.537 57.1681L123.333 52.7488L126.651 51.6636L127.437 56.1615L123.537 57.1681Z" fill="#B67C3E"/>
</g>
<g style="mix-blend-mode:soft-light">
<path fill-rule="evenodd" clip-rule="evenodd" d="M136.48 51.003L136.417 55.8312L139.626 56.0986L140.113 51.9309L136.48 51.003Z" fill="#FFFFC5"/>
</g>
<path fill-rule="evenodd" clip-rule="evenodd" d="M131.573 58.5205C131.573 58.5205 141.261 53.4564 150.54 57.2466L150.729 61.43L131.762 62.7039L131.573 58.5205Z" fill="url(#paint3_radial_4_102102)"/>
<path fill-rule="evenodd" clip-rule="evenodd" d="M131.778 62.7197C131.778 62.7197 140.821 59.6215 150.745 61.4458C150.745 61.4458 143.526 63.6948 131.778 62.7197Z" fill="#AB383B"/>
<g style="mix-blend-mode:multiply" opacity="0.2">
<path fill-rule="evenodd" clip-rule="evenodd" d="M133.351 62.2479L133.146 57.8286L136.449 56.7434L137.251 61.2414L133.351 62.2479Z" fill="#B67C3E"/>
</g>
<g style="mix-blend-mode:soft-light">
<path fill-rule="evenodd" clip-rule="evenodd" d="M146.278 56.0828L146.215 60.911L149.424 61.1784L149.911 57.0107L146.278 56.0828Z" fill="#FFFFC5"/>
</g>
<path fill-rule="evenodd" clip-rule="evenodd" d="M105.938 58.0016C105.938 58.0016 115.626 52.9375 124.905 56.7277L125.094 60.9112L106.127 62.1851L105.938 58.0016Z" fill="url(#paint4_radial_4_102102)"/>
<path fill-rule="evenodd" clip-rule="evenodd" d="M106.143 62.2009C106.143 62.2009 115.186 59.1026 125.11 60.927C125.11 60.927 117.891 63.176 106.143 62.2009Z" fill="#AB383B"/>
<g style="mix-blend-mode:multiply" opacity="0.2">
<path fill-rule="evenodd" clip-rule="evenodd" d="M107.715 61.7446L107.511 57.3096L110.813 56.2244L111.616 60.7224L107.715 61.7446Z" fill="#B67C3E"/>
</g>
<g style="mix-blend-mode:soft-light">
<path fill-rule="evenodd" clip-rule="evenodd" d="M120.643 55.5638L120.58 60.4078L123.788 60.6594L124.276 56.4917L120.643 55.5638Z" fill="#FFFFC5"/>
</g>
<path fill-rule="evenodd" clip-rule="evenodd" d="M155.132 59.2913C155.132 59.2913 165.481 56.8064 173.895 62.8928L173.344 67.0291L154.582 63.4276L155.132 59.2913Z" fill="url(#paint5_radial_4_102102)"/>
<path fill-rule="evenodd" clip-rule="evenodd" d="M154.598 63.4431C154.598 63.4431 163.987 62.7197 173.36 67.0446C173.36 67.0446 165.921 67.3906 154.598 63.4431Z" fill="#AB383B"/>
<g style="mix-blend-mode:multiply" opacity="0.2">
<path fill-rule="evenodd" clip-rule="evenodd" d="M156.202 63.396L156.784 59.0081L160.212 58.788L160.196 63.396H156.202Z" fill="#B67C3E"/>
</g>
<path fill-rule="evenodd" clip-rule="evenodd" d="M169.932 60.6594L169.035 65.3776L172.118 66.447L173.329 62.4995L169.932 60.6594Z" fill="#FFFF6B"/>
<path fill-rule="evenodd" clip-rule="evenodd" d="M160.197 68.9949C160.197 68.9949 170.105 64.5756 179.195 68.9949V73.1941H160.197V68.9949Z" fill="url(#paint6_radial_4_102102)"/>
<path fill-rule="evenodd" clip-rule="evenodd" d="M160.197 73.1941C160.197 73.1941 169.366 70.7092 179.195 73.1941C179.195 73.1941 171.898 74.9555 160.197 73.1941Z" fill="#AB383B"/>
<g style="mix-blend-mode:multiply" opacity="0.2">
<path fill-rule="evenodd" clip-rule="evenodd" d="M161.785 72.848V68.4129L165.151 67.5479L165.732 72.0931L161.785 72.848Z" fill="#B67C3E"/>
</g>
<path fill-rule="evenodd" clip-rule="evenodd" d="M174.98 67.5479L174.697 72.3761L177.89 72.848L178.566 68.7117L174.98 67.5479Z" fill="#FFFF6B"/>
<path fill-rule="evenodd" clip-rule="evenodd" d="M118.473 56.8063C118.473 56.8063 128.805 54.1641 137.267 60.109L136.763 64.261L117.969 60.9583L118.473 56.8063Z" fill="url(#paint7_radial_4_102102)"/>
<path fill-rule="evenodd" clip-rule="evenodd" d="M117.969 60.9583C117.969 60.9583 127.343 60.0933 136.763 64.261C136.763 64.261 129.324 64.7328 117.969 60.9583Z" fill="#AB383B"/>
<g style="mix-blend-mode:multiply" opacity="0.2">
<path fill-rule="evenodd" clip-rule="evenodd" d="M119.589 60.8954L120.124 56.5075L123.553 56.2244L123.568 60.8325L119.589 60.8954Z" fill="#B67C3E"/>
</g>
<g style="mix-blend-mode:soft-light">
<path fill-rule="evenodd" clip-rule="evenodd" d="M133.272 57.9387L132.423 62.6725L135.521 63.6948L136.685 59.7316L133.272 57.9387Z" fill="#FFFFC5"/>
</g>
<path fill-rule="evenodd" clip-rule="evenodd" d="M87.0186 56.9321C87.0186 56.9321 96.7222 51.9151 106.001 55.7683L106.174 59.9517L87.1915 61.1155L87.0186 56.9321Z" fill="url(#paint8_radial_4_102102)"/>
<path fill-rule="evenodd" clip-rule="evenodd" d="M87.2073 61.1155C87.2073 61.1155 96.2661 58.0801 106.19 59.9517C106.19 59.9517 98.9712 62.1535 87.2073 61.1155Z" fill="#AB383B"/>
<g style="mix-blend-mode:multiply" opacity="0.2">
<path fill-rule="evenodd" clip-rule="evenodd" d="M88.7798 60.6752L88.5911 56.2402L91.9095 55.1707L92.6801 59.6844L88.7798 60.6752Z" fill="#B67C3E"/>
</g>
<g style="mix-blend-mode:soft-light">
<path fill-rule="evenodd" clip-rule="evenodd" d="M101.739 54.5731L101.66 59.417L104.853 59.7001L105.356 55.5324L101.739 54.5731Z" fill="#FFFFC5"/>
</g>
<path fill-rule="evenodd" clip-rule="evenodd" d="M56.4133 69.9227C56.4133 69.9227 64.6858 62.0277 74.4838 62.8297L75.569 66.8244L57.4985 73.9174L56.4133 69.9227Z" fill="url(#paint9_radial_4_102102)"/>
<path fill-rule="evenodd" clip-rule="evenodd" d="M57.4985 73.9017C57.4985 73.9017 65.5823 68.1141 75.569 66.8088C75.569 66.8088 69.0737 71.2124 57.4985 73.9017Z" fill="#AB383B"/>
<g style="mix-blend-mode:multiply" opacity="0.2">
<path fill-rule="evenodd" clip-rule="evenodd" d="M58.9141 72.9737L57.7817 68.7588L60.7541 66.6829L62.4684 70.7876L58.9141 72.9737Z" fill="#B67C3E"/>
</g>
<g style="mix-blend-mode:soft-light">
<path fill-rule="evenodd" clip-rule="evenodd" d="M70.0959 63.0027L71.071 67.7051L74.2322 66.966L73.8076 62.7825L70.0959 63.0027Z" fill="#FFFFC5"/>
</g>
<path fill-rule="evenodd" clip-rule="evenodd" d="M63.7112 71.1495C63.7112 71.1495 71.9836 63.2545 81.7816 64.0566L82.8668 68.0512L64.7964 75.1442L63.7112 71.1495Z" fill="url(#paint10_radial_4_102102)"/>
<path fill-rule="evenodd" clip-rule="evenodd" d="M64.7803 75.1285C64.7803 75.1285 72.8641 69.3409 82.8508 68.0356C82.8508 68.0356 76.3554 72.4392 64.7803 75.1285Z" fill="#AB383B"/>
<g style="mix-blend-mode:multiply" opacity="0.2">
<path fill-rule="evenodd" clip-rule="evenodd" d="M66.2113 74.2004L65.0632 69.9855L68.0357 67.9095L69.7657 72.0143L66.2113 74.2004Z" fill="#B67C3E"/>
</g>
<g style="mix-blend-mode:soft-light">
<path fill-rule="evenodd" clip-rule="evenodd" d="M77.3936 64.2295L78.3686 68.9319L81.5297 68.1928L81.1051 64.0093L77.3936 64.2295Z" fill="#FFFFC5"/>
</g>
<path fill-rule="evenodd" clip-rule="evenodd" d="M160.197 74.7824C160.197 74.7824 170.105 70.3631 179.195 74.7824V78.9815H160.197V74.7824Z" fill="url(#paint11_radial_4_102102)"/>
<path fill-rule="evenodd" clip-rule="evenodd" d="M160.197 78.9815C160.197 78.9815 169.366 76.4966 179.195 78.9815C179.195 78.9815 171.898 80.743 160.197 78.9815Z" fill="#AB383B"/>
<g style="mix-blend-mode:multiply" opacity="0.2">
<path fill-rule="evenodd" clip-rule="evenodd" d="M161.785 78.6197V74.1846L165.151 73.3196L165.732 77.8648L161.785 78.6197Z" fill="#B67C3E"/>
</g>
<path fill-rule="evenodd" clip-rule="evenodd" d="M174.98 73.3196L174.697 78.1479L177.89 78.6197L178.566 74.4992L174.98 73.3196Z" fill="#FFFF27"/>
<path fill-rule="evenodd" clip-rule="evenodd" d="M138.195 63.0342C138.195 63.0342 148.103 58.6149 157.193 63.0342V67.2334H138.195V63.0342Z" fill="url(#paint12_radial_4_102102)"/>
<path fill-rule="evenodd" clip-rule="evenodd" d="M138.195 67.2334C138.195 67.2334 147.364 64.7485 157.193 67.2334C157.193 67.2334 149.896 68.9948 138.195 67.2334Z" fill="#AB383B"/>
<g style="mix-blend-mode:multiply" opacity="0.2">
<path fill-rule="evenodd" clip-rule="evenodd" d="M139.783 66.8873V62.4523L143.149 61.5873L143.73 66.1324L139.783 66.8873Z" fill="#B67C3E"/>
</g>
<path fill-rule="evenodd" clip-rule="evenodd" d="M152.978 61.5873L152.711 66.3998L155.903 66.8873L156.58 62.7511L152.978 61.5873Z" fill="#FFFF6B"/>
<path fill-rule="evenodd" clip-rule="evenodd" d="M140.365 67.2177C140.365 67.2177 150.273 62.7984 159.363 67.2177V71.4168H140.365V67.2177Z" fill="url(#paint13_radial_4_102102)"/>
<path fill-rule="evenodd" clip-rule="evenodd" d="M140.365 71.4168C140.365 71.4168 149.534 68.9319 159.363 71.4168C159.363 71.4168 152.05 73.1783 140.365 71.4168Z" fill="#AB383B"/>
<g style="mix-blend-mode:multiply" opacity="0.2">
<path fill-rule="evenodd" clip-rule="evenodd" d="M141.953 71.055V66.6357L145.319 65.755L145.901 70.3001L141.953 71.055Z" fill="#B67C3E"/>
</g>
<g style="mix-blend-mode:soft-light">
<path fill-rule="evenodd" clip-rule="evenodd" d="M155.148 65.755L154.865 70.5832L158.058 71.055L158.734 66.9345L155.148 65.755Z" fill="#FFFFC5"/>
</g>
<path fill-rule="evenodd" clip-rule="evenodd" d="M125.896 69.1993C125.896 69.1993 134.184 61.3043 143.966 62.1221L145.035 66.1168L126.965 73.194L125.896 69.1993Z" fill="url(#paint14_radial_4_102102)"/>
<path fill-rule="evenodd" clip-rule="evenodd" d="M126.981 73.194C126.981 73.194 135.064 67.4064 145.051 66.1168C145.051 66.1168 138.556 70.5046 126.981 73.194Z" fill="#AB383B"/>
<g style="mix-blend-mode:multiply" opacity="0.2">
<path fill-rule="evenodd" clip-rule="evenodd" d="M128.396 72.2661L127.264 68.0512L130.236 65.9752L131.95 70.08L128.396 72.2661Z" fill="#B67C3E"/>
</g>
<g style="mix-blend-mode:soft-light">
<path fill-rule="evenodd" clip-rule="evenodd" d="M139.594 62.3109L140.569 66.9976L143.714 66.2741L143.306 62.0907L139.594 62.3109Z" fill="#FFFFC5"/>
</g>
<path fill-rule="evenodd" clip-rule="evenodd" d="M97.6184 60.3449C97.6184 60.3449 107.527 55.9256 116.617 60.3449V64.5441H97.6184V60.3449Z" fill="url(#paint15_radial_4_102102)"/>
<path fill-rule="evenodd" clip-rule="evenodd" d="M97.6184 64.5283C97.6184 64.5283 106.787 62.0435 116.617 64.5283C116.617 64.5283 109.319 66.2898 97.6184 64.5283Z" fill="#AB383B"/>
<g style="mix-blend-mode:multiply" opacity="0.2">
<path fill-rule="evenodd" clip-rule="evenodd" d="M99.2224 64.1823V59.7473L102.572 58.8823L103.154 63.4274L99.2224 64.1823Z" fill="#B67C3E"/>
</g>
<g style="mix-blend-mode:soft-light">
<path fill-rule="evenodd" clip-rule="evenodd" d="M112.418 58.8823L112.135 63.7105L115.327 64.1823L116.003 60.0461L112.418 58.8823Z" fill="#FFFFC5"/>
</g>
<path fill-rule="evenodd" clip-rule="evenodd" d="M97.241 66.1954C97.241 66.1954 107.149 61.7761 116.239 66.1954V70.3945H97.241V66.1954Z" fill="url(#paint16_radial_4_102102)"/>
<path fill-rule="evenodd" clip-rule="evenodd" d="M97.241 70.3945C97.241 70.3945 106.41 67.9096 116.239 70.3945C116.239 70.3945 108.942 72.1559 97.241 70.3945Z" fill="#AB383B"/>
<g style="mix-blend-mode:multiply" opacity="0.2">
<path fill-rule="evenodd" clip-rule="evenodd" d="M98.8296 70.0328V65.5977L102.195 64.7327L102.777 69.2779L98.8296 70.0328Z" fill="#B67C3E"/>
</g>
<g style="mix-blend-mode:soft-light">
<path fill-rule="evenodd" clip-rule="evenodd" d="M112.024 64.7327L111.741 69.561L114.934 70.0328L115.61 65.9123L112.024 64.7327Z" fill="#FFFFC5"/>
</g>
<path fill-rule="evenodd" clip-rule="evenodd" d="M97.241 71.6841C97.241 71.6841 107.149 67.2648 116.239 71.6841V75.8833H97.241V71.6841Z" fill="url(#paint17_radial_4_102102)"/>
<path fill-rule="evenodd" clip-rule="evenodd" d="M97.241 75.8833C97.241 75.8833 106.41 73.3984 116.239 75.8833C116.239 75.8833 108.942 77.6448 97.241 75.8833Z" fill="#AB383B"/>
<g style="mix-blend-mode:multiply" opacity="0.2">
<path fill-rule="evenodd" clip-rule="evenodd" d="M98.8296 75.5372V71.1022L102.195 70.2372L102.777 74.7823L98.8296 75.5372Z" fill="#B67C3E"/>
</g>
<g style="mix-blend-mode:soft-light">
<path fill-rule="evenodd" clip-rule="evenodd" d="M112.024 70.2372L111.741 75.0654L114.934 75.5372L115.61 71.401L112.024 70.2372Z" fill="#FFFFC5"/>
</g>
<path fill-rule="evenodd" clip-rule="evenodd" d="M80.9006 61.9177C80.9006 61.9177 90.8088 57.4984 99.899 61.9177V66.1168H80.9006V61.9177Z" fill="url(#paint18_radial_4_102102)"/>
<path fill-rule="evenodd" clip-rule="evenodd" d="M80.9006 66.1168C80.9006 66.1168 90.0696 63.632 99.899 66.1168C99.899 66.1168 92.6016 67.8783 80.9006 66.1168Z" fill="#AB383B"/>
<g style="mix-blend-mode:multiply" opacity="0.2">
<path fill-rule="evenodd" clip-rule="evenodd" d="M82.489 65.7707V61.3357L85.8546 60.4707L86.4365 65.0158L82.489 65.7707Z" fill="#B67C3E"/>
</g>
<g style="mix-blend-mode:soft-light">
<path fill-rule="evenodd" clip-rule="evenodd" d="M95.6841 60.4707L95.4167 65.2989L98.6094 65.7707L99.2856 61.6345L95.6841 60.4707Z" fill="#FFFFC5"/>
</g>
<path fill-rule="evenodd" clip-rule="evenodd" d="M76.3083 67.7838C76.3083 67.7838 86.2164 63.3645 95.3067 67.7838V71.983H76.3083V67.7838Z" fill="url(#paint19_radial_4_102102)"/>
<path fill-rule="evenodd" clip-rule="evenodd" d="M76.3083 71.9672C76.3083 71.9672 85.4772 69.4824 95.3067 71.9672C95.3067 71.9672 88.0093 73.7287 76.3083 71.9672Z" fill="#AB383B"/>
<g style="mix-blend-mode:multiply" opacity="0.2">
<path fill-rule="evenodd" clip-rule="evenodd" d="M77.9124 71.6212V67.1862L81.2622 66.3212L81.8441 70.8663L77.9124 71.6212Z" fill="#B67C3E"/>
</g>
<g style="mix-blend-mode:soft-light">
<path fill-rule="evenodd" clip-rule="evenodd" d="M91.1073 66.3212L90.8242 71.1494L94.0168 71.6212L94.6931 67.485L91.1073 66.3212Z" fill="#FFFFC5"/>
</g>
<path fill-rule="evenodd" clip-rule="evenodd" d="M97.9488 64.1822C97.9488 64.1822 108.439 62.814 116.365 69.7811L115.516 73.8544L97.0996 68.2556L97.9488 64.1822Z" fill="url(#paint20_radial_4_102102)"/>
<path fill-rule="evenodd" clip-rule="evenodd" d="M97.0996 68.2556C97.0996 68.2556 106.504 68.5544 115.516 73.8544C115.516 73.8544 108.077 73.3983 97.0996 68.2556Z" fill="#AB383B"/>
<g style="mix-blend-mode:multiply" opacity="0.2">
<path fill-rule="evenodd" clip-rule="evenodd" d="M98.7197 68.3814L99.6161 64.0879L103.045 64.2294L102.683 68.8218L98.7197 68.3814Z" fill="#B67C3E"/>
</g>
<g style="mix-blend-mode:soft-light">
<path fill-rule="evenodd" clip-rule="evenodd" d="M112.591 67.139L111.333 71.7314L114.337 73.1311L115.831 69.3251L112.591 67.139Z" fill="#FFFFC5"/>
</g>
<path fill-rule="evenodd" clip-rule="evenodd" d="M70.7883 71.5269C70.7883 71.5269 80.6964 67.1076 89.7867 71.5269V75.7261H70.7883V71.5269Z" fill="url(#paint21_radial_4_102102)"/>
<path fill-rule="evenodd" clip-rule="evenodd" d="M70.7883 75.7261C70.7883 75.7261 79.9572 73.2412 89.7867 75.7261C89.7867 75.7261 82.4893 77.4875 70.7883 75.7261Z" fill="#AB383B"/>
<g style="mix-blend-mode:multiply" opacity="0.2">
<path fill-rule="evenodd" clip-rule="evenodd" d="M72.3767 75.3643V70.9292L75.7423 70.0642L76.3085 74.6093L72.3767 75.3643Z" fill="#B67C3E"/>
</g>
<g style="mix-blend-mode:soft-light">
<path fill-rule="evenodd" clip-rule="evenodd" d="M85.5717 70.0642L85.2886 74.8924L88.4812 75.3643L89.1574 71.2437L85.5717 70.0642Z" fill="#FFFFC5"/>
</g>
<path fill-rule="evenodd" clip-rule="evenodd" d="M89.3459 71.2124C89.3459 71.2124 99.2541 66.7931 108.344 71.2124V75.4116H89.3459V71.2124Z" fill="url(#paint22_radial_4_102102)"/>
<path fill-rule="evenodd" clip-rule="evenodd" d="M89.3459 75.4116C89.3459 75.4116 98.5149 72.9267 108.344 75.4116C108.344 75.4116 101.047 77.173 89.3459 75.4116Z" fill="#AB383B"/>
<g style="mix-blend-mode:multiply" opacity="0.2">
<path fill-rule="evenodd" clip-rule="evenodd" d="M90.9343 75.0498V70.6305L94.2842 69.7498L94.8661 74.2949L90.9343 75.0498Z" fill="#B67C3E"/>
</g>
<path fill-rule="evenodd" clip-rule="evenodd" d="M104.13 69.7498L103.846 74.578L107.039 75.0498L107.715 70.9293L104.13 69.7498Z" fill="#FFFF6B"/>
<path fill-rule="evenodd" clip-rule="evenodd" d="M113.11 63.4431C113.11 63.4431 123.018 59.0238 132.108 63.4431V67.6423H113.11V63.4431Z" fill="url(#paint23_radial_4_102102)"/>
<path fill-rule="evenodd" clip-rule="evenodd" d="M113.11 67.6266C113.11 67.6266 122.279 65.1417 132.108 67.6266C132.108 67.6266 124.811 69.388 113.11 67.6266Z" fill="#AB383B"/>
<g style="mix-blend-mode:multiply" opacity="0.2">
<path fill-rule="evenodd" clip-rule="evenodd" d="M114.698 67.2806V62.8455L118.064 61.9805L118.646 66.5257L114.698 67.2806Z" fill="#B67C3E"/>
</g>
<g style="mix-blend-mode:soft-light">
<path fill-rule="evenodd" clip-rule="evenodd" d="M127.893 61.9805L127.626 66.8088L130.803 67.2806L131.479 63.1443L127.893 61.9805Z" fill="#FFFFC5"/>
</g>
<path fill-rule="evenodd" clip-rule="evenodd" d="M113.11 68.6802C113.11 68.6802 123.018 64.2609 132.108 68.6802V72.8794H113.11V68.6802Z" fill="url(#paint24_radial_4_102102)"/>
<path fill-rule="evenodd" clip-rule="evenodd" d="M113.11 72.8794C113.11 72.8794 122.279 70.3945 132.108 72.8794C132.108 72.8794 124.811 74.6408 113.11 72.8794Z" fill="#AB383B"/>
<g style="mix-blend-mode:multiply" opacity="0.2">
<path fill-rule="evenodd" clip-rule="evenodd" d="M114.698 72.5333V68.0983L118.064 67.2333L118.646 71.7784L114.698 72.5333Z" fill="#B67C3E"/>
</g>
<g style="mix-blend-mode:soft-light">
<path fill-rule="evenodd" clip-rule="evenodd" d="M127.893 67.2333L127.626 72.0615L130.803 72.5333L131.479 68.3971L127.893 67.2333Z" fill="#FFFFC5"/>
</g>
<path fill-rule="evenodd" clip-rule="evenodd" d="M113.11 72.4705C113.11 72.4705 123.018 68.0512 132.108 72.4705V76.6696H113.11V72.4705Z" fill="url(#paint25_radial_4_102102)"/>
<path fill-rule="evenodd" clip-rule="evenodd" d="M113.11 76.6697C113.11 76.6697 122.279 74.1848 132.108 76.6697C132.108 76.6697 124.811 78.4311 113.11 76.6697Z" fill="#AB383B"/>
<g style="mix-blend-mode:multiply" opacity="0.2">
<path fill-rule="evenodd" clip-rule="evenodd" d="M114.698 76.3079V71.8728L118.064 71.0078L118.646 75.553L114.698 76.3079Z" fill="#B67C3E"/>
</g>
<g style="mix-blend-mode:soft-light">
<path fill-rule="evenodd" clip-rule="evenodd" d="M127.893 71.0078L127.626 75.836L130.803 76.3079L131.479 72.1873L127.893 71.0078Z" fill="#FFFFC5"/>
</g>
<path fill-rule="evenodd" clip-rule="evenodd" d="M146.876 71.8101C146.876 71.8101 156.784 67.3908 165.874 71.8101V76.0092H146.876V71.8101Z" fill="url(#paint26_radial_4_102102)"/>
<path fill-rule="evenodd" clip-rule="evenodd" d="M146.876 76.0092C146.876 76.0092 156.045 73.5244 165.874 76.0092C165.874 76.0092 158.577 77.7707 146.876 76.0092Z" fill="#AB383B"/>
<g style="mix-blend-mode:multiply" opacity="0.2">
<path fill-rule="evenodd" clip-rule="evenodd" d="M148.464 75.6632V71.2282L151.83 70.3632L152.412 74.9083L148.464 75.6632Z" fill="#B67C3E"/>
</g>
<path fill-rule="evenodd" clip-rule="evenodd" d="M161.66 70.3632L161.392 75.1914L164.585 75.6632L165.261 71.527L161.66 70.3632Z" fill="#FFFF27"/>
<path fill-rule="evenodd" clip-rule="evenodd" d="M129.01 71.8101C129.01 71.8101 138.918 67.3908 148.008 71.8101V76.0092H129.01V71.8101Z" fill="url(#paint27_radial_4_102102)"/>
<path fill-rule="evenodd" clip-rule="evenodd" d="M129.01 76.0092C129.01 76.0092 138.179 73.5244 148.008 76.0092C148.008 76.0092 140.711 77.7707 129.01 76.0092Z" fill="#AB383B"/>
<g style="mix-blend-mode:multiply" opacity="0.2">
<path fill-rule="evenodd" clip-rule="evenodd" d="M130.598 75.6632V71.2282L133.964 70.3632L134.53 74.9083L130.598 75.6632Z" fill="#B67C3E"/>
</g>
<path fill-rule="evenodd" clip-rule="evenodd" d="M143.793 70.3632L143.51 75.1914L146.703 75.6632L147.379 71.527L143.793 70.3632Z" fill="#FFFF6B"/>
<path fill-rule="evenodd" clip-rule="evenodd" d="M152.71 70.2059L160.228 70.5047L163.326 70.8036C163.326 70.8036 158.246 69.0893 152.71 70.2059Z" fill="#FFFF27"/>
<path fill-rule="evenodd" clip-rule="evenodd" d="M137.943 69.8755L138.698 70.1114L143.793 70.3631C143.793 70.3631 141.812 69.7812 137.943 69.8755Z" fill="#FFFF27"/>
<path fill-rule="evenodd" clip-rule="evenodd" d="M132.894 57.7814L133.146 59.1496L136.873 59.8259C136.873 59.8259 134.436 58.3004 132.894 57.7814Z" fill="#FFFF27"/>
<path opacity="0.62" fill-rule="evenodd" clip-rule="evenodd" d="M179.195 73.194V68.9949C178.991 68.9005 178.787 68.8061 178.566 68.7118H178.551C177.371 68.1928 176.176 67.8153 174.996 67.548C171.348 66.7459 167.84 67.029 165.167 67.548C163.799 67.8153 162.666 68.1456 161.817 68.413C160.81 68.7432 160.228 68.9949 160.228 68.9949V70.0958C159.945 70.0486 159.678 70.0171 159.395 69.9857V67.2177C159.191 67.1233 158.986 67.029 158.766 66.9346H158.75C158.247 66.7144 157.744 66.5257 157.24 66.3527V64.3082C167.085 67.3435 173.392 67.0604 173.392 67.0604L173.943 62.9242C173.754 62.7826 173.549 62.6568 173.361 62.531H173.345C172.244 61.7918 171.112 61.1942 169.995 60.7067C166.504 59.2126 162.996 58.8351 160.276 58.8351C157.256 58.8351 155.196 59.3384 155.196 59.3384L154.834 62.1064C154.236 61.9177 153.655 61.7604 153.057 61.6188C152.302 61.4458 151.547 61.3358 150.808 61.2571L150.619 57.2939C150.399 57.1995 150.195 57.1366 149.974 57.058H149.959C148.748 56.6176 147.552 56.3188 146.357 56.1458C144.501 55.8627 142.677 55.8627 141.01 56.0043L140.837 52.2297C140.632 52.1354 140.412 52.0725 140.192 51.9938H140.161C138.95 51.5535 137.754 51.2547 136.559 51.0817C132.879 50.5155 129.403 51.0345 126.745 51.7422C125.393 52.1039 124.276 52.4971 123.443 52.8274C122.452 53.2206 121.886 53.5194 121.886 53.5194L121.996 55.8784C121.587 55.7841 121.178 55.7054 120.769 55.6425C117.089 55.0764 113.613 55.5953 110.955 56.3031C109.603 56.6648 108.486 57.058 107.653 57.3882C106.945 57.6713 106.457 57.8915 106.237 58.0016L106.143 55.847C105.938 55.7526 105.718 55.674 105.514 55.5953H105.498C104.303 55.155 103.092 54.8404 101.897 54.6517C98.2164 54.0698 94.7407 54.5574 92.0671 55.2494C90.7145 55.5954 89.5822 55.9885 88.7487 56.3188C87.7579 56.712 87.176 57.0108 87.176 57.0108L87.3175 60.3292C86.8614 60.3921 86.421 60.4708 86.0121 60.5494C83.024 61.1313 81.0581 62.012 81.0581 62.012V64.088C79.8628 64.0565 78.699 64.1352 77.5667 64.3239C76.7488 64.4497 75.9468 64.6385 75.1762 64.8586L74.6414 62.9085C74.4213 62.8927 74.2011 62.877 73.9809 62.877H73.9494C72.6913 62.8298 71.4646 62.9085 70.2693 63.0972C66.6049 63.6948 63.3336 65.2675 60.9116 66.7773C58.2223 68.4444 56.5867 70.0171 56.5867 70.0171L57.6718 74.0118C60.0466 73.4614 62.2012 72.8323 64.1357 72.1875L64.9535 75.2385C67.1396 74.7353 69.1369 74.1534 70.9455 73.5715V75.8204C82.6465 77.5819 89.9439 75.8204 89.9439 75.8204V75.5688C93.6712 76.1035 96.9582 76.2923 99.6633 76.2923C105.718 77.0157 110.421 76.7798 113.267 76.4653V76.7641C124.968 78.5255 132.266 76.7641 132.266 76.7641V76.5124C140.554 77.3932 146.137 76.5124 147.71 76.2136C152.931 76.9528 157.225 76.9842 160.354 76.8113V79.076C172.055 80.8374 179.353 79.076 179.353 79.076V74.8768C179.148 74.7824 178.944 74.6881 178.724 74.5937H178.708C177.953 74.2635 177.182 73.9804 176.427 73.7602C178.33 73.54 179.353 73.3041 179.353 73.3041L179.195 73.194ZM132.108 64.0723C132.627 64.1195 133.099 64.1666 133.54 64.1981C133.036 64.4183 132.564 64.6542 132.108 64.9058V64.088V64.0723ZM116.617 62.2951V62.2637C116.617 62.2637 116.712 62.2637 116.759 62.2637C116.712 62.2637 116.664 62.2794 116.617 62.2951ZM133.131 57.8286C133.131 57.8286 133.083 57.8443 133.052 57.8601C132.91 57.7972 132.769 57.75 132.612 57.6871C132.989 57.6556 133.367 57.6241 133.713 57.5927C133.508 57.6713 133.304 57.75 133.115 57.8286H133.131ZM94.6778 67.4851H94.662C94.1273 67.2492 93.5926 67.0447 93.0579 66.8717C94.7407 66.8088 96.1561 66.683 97.2413 66.5572V67.6109L97.0998 68.2714C97.0998 68.2714 97.1941 68.3186 97.2413 68.3343V69.3566C96.565 69.4195 95.936 69.4981 95.3226 69.5925V67.7996C95.1181 67.7052 94.9137 67.6109 94.6935 67.5165L94.6778 67.4851ZM140.349 68.6331V69.8756C139.343 69.8127 138.368 69.8284 137.44 69.8913C138.525 69.451 139.5 69.0263 140.349 68.6331Z" fill="url(#paint28_radial_4_102102)"/>
<path fill-rule="evenodd" clip-rule="evenodd" d="M209.847 70.5676C209.847 70.5676 224.505 65.6293 238.093 70.2845C238.093 70.2845 224.505 73.886 209.847 70.5676Z" fill="url(#paint29_radial_4_102102)"/>
<path fill-rule="evenodd" clip-rule="evenodd" d="M209.847 70.5678L210.728 74.6568C210.728 74.6568 223.813 77.6607 237.024 74.6568L238.093 70.2847C238.093 70.2847 225.637 73.6503 209.847 70.5678Z" fill="url(#paint30_radial_4_102102)"/>
<g style="mix-blend-mode:soft-light">
<path fill-rule="evenodd" clip-rule="evenodd" d="M230.104 71.5585L229.805 75.7734L232.07 75.5217L233.014 71.2282L230.104 71.5585Z" fill="#FFFFC5"/>
</g>
<g style="mix-blend-mode:soft-light">
<path fill-rule="evenodd" clip-rule="evenodd" d="M211.357 70.898L211.86 74.8927L213.465 75.1601L212.946 71.1811L211.357 70.898Z" fill="#FF9F31"/>
</g>
<g style="mix-blend-mode:multiply" opacity="0.2">
<path fill-rule="evenodd" clip-rule="evenodd" d="M212.945 71.181L213.464 75.1599L217.459 75.6632V71.6528L212.945 71.181Z" fill="#B67C3E"/>
</g>
<g style="mix-blend-mode:multiply" opacity="0.2">
<path fill-rule="evenodd" clip-rule="evenodd" d="M212.411 70.3947C212.411 70.3947 226.361 72.0775 235.718 70.1431C235.718 70.1431 225.338 67.1235 212.411 70.3947Z" fill="#EA863E"/>
</g>
<path fill-rule="evenodd" clip-rule="evenodd" d="M214.157 70.5677C214.157 70.5677 224.285 68.2872 235.042 70.2688L235.734 70.143C235.734 70.143 227.053 67.1391 212.427 70.3947L214.172 70.5677H214.157Z" fill="url(#paint31_radial_4_102102)"/>
<path fill-rule="evenodd" clip-rule="evenodd" d="M203.069 64.9687C203.069 64.9687 217.727 60.0303 231.315 64.6856C231.315 64.6856 217.727 68.2871 203.069 64.9687Z" fill="url(#paint32_radial_4_102102)"/>
<path fill-rule="evenodd" clip-rule="evenodd" d="M203.069 64.9688L203.95 69.0578C203.95 69.0578 217.035 72.0617 230.245 69.0578L231.315 64.6857C231.315 64.6857 218.859 68.0513 203.069 64.9688Z" fill="url(#paint33_radial_4_102102)"/>
<g style="mix-blend-mode:soft-light">
<path fill-rule="evenodd" clip-rule="evenodd" d="M223.309 65.9595L223.026 70.1586L225.291 69.907L226.235 65.6135L223.309 65.9595Z" fill="#FFFFC5"/>
</g>
<g style="mix-blend-mode:soft-light">
<path fill-rule="evenodd" clip-rule="evenodd" d="M204.579 65.2833L205.082 69.278L206.686 69.5454L206.167 65.5664L204.579 65.2833Z" fill="#FF9F31"/>
</g>
<g style="mix-blend-mode:multiply" opacity="0.2">
<path fill-rule="evenodd" clip-rule="evenodd" d="M206.167 65.5663L206.686 69.5453L210.681 70.0485V66.0381L206.167 65.5663Z" fill="#B67C3E"/>
</g>
<g style="mix-blend-mode:multiply" opacity="0.2">
<path fill-rule="evenodd" clip-rule="evenodd" d="M205.632 64.78C205.632 64.78 219.582 66.4628 228.94 64.5284C228.94 64.5284 218.56 61.5088 205.632 64.78Z" fill="#EA863E"/>
</g>
<path fill-rule="evenodd" clip-rule="evenodd" d="M207.378 64.9687C207.378 64.9687 217.507 62.6883 228.264 64.6699L228.956 64.5441C228.956 64.5441 220.275 61.5402 205.648 64.7957L207.394 64.9687H207.378Z" fill="url(#paint34_radial_4_102102)"/>
<path fill-rule="evenodd" clip-rule="evenodd" d="M186.257 70.7721C186.257 70.7721 200.915 65.8338 214.503 70.489C214.503 70.489 200.915 74.0905 186.257 70.7721Z" fill="url(#paint35_radial_4_102102)"/>
<path fill-rule="evenodd" clip-rule="evenodd" d="M186.257 70.7722L187.138 74.8612C187.138 74.8612 200.223 77.8651 213.433 74.8612L214.503 70.4891C214.503 70.4891 202.047 73.8547 186.257 70.7722Z" fill="url(#paint36_radial_4_102102)"/>
<g style="mix-blend-mode:soft-light">
<path fill-rule="evenodd" clip-rule="evenodd" d="M206.497 71.763L206.214 75.9621L208.479 75.7262L209.423 71.4327L206.497 71.763Z" fill="#FFFFC5"/>
</g>
<g style="mix-blend-mode:soft-light">
<path fill-rule="evenodd" clip-rule="evenodd" d="M187.767 71.1023L188.27 75.097L189.874 75.3643L189.355 71.3854L187.767 71.1023Z" fill="#FF9F31"/>
</g>
<g style="mix-blend-mode:multiply" opacity="0.2">
<path fill-rule="evenodd" clip-rule="evenodd" d="M189.355 71.3854L189.874 75.3644L193.868 75.8677V71.8415L189.355 71.3854Z" fill="#B67C3E"/>
</g>
<g style="mix-blend-mode:multiply" opacity="0.2">
<path fill-rule="evenodd" clip-rule="evenodd" d="M188.82 70.5991C188.82 70.5991 202.77 72.2819 212.127 70.3475C212.127 70.3475 201.748 67.3279 188.82 70.5991Z" fill="#EA863E"/>
</g>
<path fill-rule="evenodd" clip-rule="evenodd" d="M190.566 70.7721C190.566 70.7721 200.694 68.4917 211.452 70.4733L212.144 70.3475C212.144 70.3475 203.462 67.3436 188.836 70.5991L190.582 70.7721H190.566Z" fill="url(#paint37_radial_4_102102)"/>
<path fill-rule="evenodd" clip-rule="evenodd" d="M185.281 65.645C185.281 65.645 199.939 60.7067 213.527 65.362C213.527 65.362 199.939 68.9635 185.281 65.645Z" fill="url(#paint38_radial_4_102102)"/>
<path fill-rule="evenodd" clip-rule="evenodd" d="M185.281 65.6451L186.162 69.7342C186.162 69.7342 199.247 72.7381 212.458 69.7342L213.527 65.3621C213.527 65.3621 201.071 68.7277 185.281 65.6451Z" fill="url(#paint39_radial_4_102102)"/>
<g style="mix-blend-mode:soft-light">
<path fill-rule="evenodd" clip-rule="evenodd" d="M205.538 66.6359L205.255 70.8351L207.52 70.5992L208.448 66.3057L205.538 66.6359Z" fill="#FFFFC5"/>
</g>
<g style="mix-blend-mode:soft-light">
<path fill-rule="evenodd" clip-rule="evenodd" d="M186.807 65.9597L187.31 69.9701L188.899 70.2375L188.395 66.2585L186.807 65.9597Z" fill="#FF9F31"/>
</g>
<g style="mix-blend-mode:multiply" opacity="0.2">
<path fill-rule="evenodd" clip-rule="evenodd" d="M188.396 66.2584L188.899 70.2374L192.893 70.7407V66.7145L188.396 66.2584Z" fill="#B67C3E"/>
</g>
<g style="mix-blend-mode:multiply" opacity="0.2">
<path fill-rule="evenodd" clip-rule="evenodd" d="M187.845 65.4721C187.845 65.4721 201.795 67.1549 211.152 65.2205C211.152 65.2205 200.772 62.2009 187.845 65.4721Z" fill="#EA863E"/>
</g>
<path fill-rule="evenodd" clip-rule="evenodd" d="M189.591 65.6451C189.591 65.6451 199.719 63.3646 210.476 65.3462L211.168 65.2204C211.168 65.2204 202.487 62.2165 187.861 65.4721L189.607 65.6451H189.591Z" fill="url(#paint40_radial_4_102102)"/>
<path fill-rule="evenodd" clip-rule="evenodd" d="M169.712 71.6527C169.712 71.6527 184.369 66.7144 197.958 71.3696C197.958 71.3696 184.369 74.9712 169.712 71.6527Z" fill="url(#paint41_radial_4_102102)"/>
<path fill-rule="evenodd" clip-rule="evenodd" d="M169.712 71.6528L170.592 75.7418C170.592 75.7418 183.677 78.7457 196.888 75.7418L197.958 71.3697C197.958 71.3697 185.502 74.7353 169.712 71.6528Z" fill="url(#paint42_radial_4_102102)"/>
<g style="mix-blend-mode:soft-light">
<path fill-rule="evenodd" clip-rule="evenodd" d="M189.968 72.6436L189.669 76.8427L191.934 76.6068L192.877 72.3133L189.968 72.6436Z" fill="#FFFFC5"/>
</g>
<g style="mix-blend-mode:soft-light">
<path fill-rule="evenodd" clip-rule="evenodd" d="M171.221 71.9828L171.725 75.9775L173.329 76.2449L172.81 72.2659L171.221 71.9828Z" fill="#FF9F31"/>
</g>
<g style="mix-blend-mode:multiply" opacity="0.2">
<path fill-rule="evenodd" clip-rule="evenodd" d="M172.81 72.2661L173.329 76.245L177.324 76.7483V72.7379L172.81 72.2661Z" fill="#B67C3E"/>
</g>
<g style="mix-blend-mode:multiply" opacity="0.2">
<path fill-rule="evenodd" clip-rule="evenodd" d="M172.275 71.4798C172.275 71.4798 186.225 73.1626 195.583 71.2281C195.583 71.2281 185.203 68.2085 172.275 71.4798Z" fill="#EA863E"/>
</g>
<path fill-rule="evenodd" clip-rule="evenodd" d="M174.021 71.6527C174.021 71.6527 184.149 69.3723 194.906 71.3539L195.598 71.2281C195.598 71.2281 186.917 68.2242 172.291 71.4797L174.037 71.6527H174.021Z" fill="url(#paint43_radial_4_102102)"/>
<path fill-rule="evenodd" clip-rule="evenodd" d="M166.094 67.0761C166.094 67.0761 180.752 62.1378 194.34 66.793C194.34 66.793 180.752 70.3945 166.094 67.0761Z" fill="url(#paint44_radial_4_102102)"/>
<path fill-rule="evenodd" clip-rule="evenodd" d="M166.094 67.0761L166.975 71.1652C166.975 71.1652 180.06 74.1691 193.271 71.1652L194.34 66.793C194.34 66.793 181.884 70.1586 166.094 67.0761Z" fill="url(#paint45_radial_4_102102)"/>
<g style="mix-blend-mode:soft-light">
<path fill-rule="evenodd" clip-rule="evenodd" d="M186.351 68.0669L186.052 72.266L188.317 72.0301L189.26 67.7366L186.351 68.0669Z" fill="#FFFFC5"/>
</g>
<g style="mix-blend-mode:soft-light">
<path fill-rule="evenodd" clip-rule="evenodd" d="M167.604 67.3907L168.123 71.3854L169.711 71.6527L169.192 67.6738L167.604 67.3907Z" fill="#FF9F31"/>
</g>
<g style="mix-blend-mode:multiply" opacity="0.2">
<path fill-rule="evenodd" clip-rule="evenodd" d="M169.193 67.6737L169.712 71.6527L173.706 72.1559V68.1455L169.193 67.6737Z" fill="#B67C3E"/>
</g>
<g style="mix-blend-mode:multiply" opacity="0.2">
<path fill-rule="evenodd" clip-rule="evenodd" d="M168.658 66.8874C168.658 66.8874 182.608 68.5702 191.966 66.6358C191.966 66.6358 181.586 63.6162 168.658 66.8874Z" fill="#EA863E"/>
</g>
<path fill-rule="evenodd" clip-rule="evenodd" d="M170.403 67.0761C170.403 67.0761 180.532 64.7956 191.289 66.7773L191.981 66.6515C191.981 66.6515 183.3 63.6476 168.673 66.9031L170.419 67.0761H170.403Z" fill="url(#paint46_radial_4_102102)"/>
<path fill-rule="evenodd" clip-rule="evenodd" d="M148.873 73.1311C148.873 73.1311 160.386 62.7984 174.697 61.6818C174.697 61.6818 163.641 70.3789 148.873 73.1311Z" fill="url(#paint47_radial_4_102102)"/>
<path fill-rule="evenodd" clip-rule="evenodd" d="M148.873 73.1311L151.295 76.5282C151.295 76.5282 164.506 74.1062 175.452 66.1168L174.697 61.6818C174.697 61.6818 164.585 69.7183 148.873 73.1311Z" fill="url(#paint48_radial_4_102102)"/>
<g style="mix-blend-mode:soft-light">
<path fill-rule="evenodd" clip-rule="evenodd" d="M167.856 66.0223L169.255 70.0013L171.237 68.8847L170.404 64.5597L167.856 66.0223Z" fill="#FFFFC5"/>
</g>
<g style="mix-blend-mode:soft-light">
<path fill-rule="evenodd" clip-rule="evenodd" d="M150.383 72.8322L152.443 76.2922L154 75.9148L151.956 72.4705L150.383 72.8322Z" fill="#FF9F31"/>
</g>
<g style="mix-blend-mode:multiply" opacity="0.2">
<path fill-rule="evenodd" clip-rule="evenodd" d="M151.956 72.4706L154 75.9148L157.869 74.7982L156.281 71.1023L151.956 72.4706Z" fill="#B67C3E"/>
</g>
<g style="mix-blend-mode:multiply" opacity="0.2">
<path fill-rule="evenodd" clip-rule="evenodd" d="M151.154 71.9516C151.154 71.9516 164.632 67.9727 172.464 62.4996C172.464 62.4996 161.738 63.8364 151.154 71.9516Z" fill="#EA863E"/>
</g>
<path fill-rule="evenodd" clip-rule="evenodd" d="M152.821 71.4326C152.821 71.4326 161.219 65.3305 171.882 62.8928L172.464 62.4996C172.464 62.4996 163.311 63.1759 151.154 71.9516L152.821 71.4326Z" fill="url(#paint49_radial_4_102102)"/>
<path fill-rule="evenodd" clip-rule="evenodd" d="M107.448 70.8978C107.448 70.8978 121.807 65.1574 135.631 69.0577C135.631 69.0577 122.263 73.4142 107.448 70.8978Z" fill="url(#paint50_radial_4_102102)"/>
<path fill-rule="evenodd" clip-rule="evenodd" d="M107.448 70.8979L108.549 74.9241C108.549 74.9241 121.791 77.2045 134.813 73.4772L135.646 69.0421C135.646 69.0421 123.395 73.0997 107.463 70.8822L107.448 70.8979Z" fill="url(#paint51_radial_4_102102)"/>
<g style="mix-blend-mode:soft-light">
<path fill-rule="evenodd" clip-rule="evenodd" d="M127.736 70.772L127.673 74.9868L129.922 74.6094L130.614 70.2844L127.736 70.772Z" fill="#FFFFC5"/>
</g>
<g style="mix-blend-mode:soft-light">
<path fill-rule="evenodd" clip-rule="evenodd" d="M108.989 71.1338L109.712 75.097L111.317 75.27L110.577 71.3382L108.989 71.1338Z" fill="#FF9F31"/>
</g>
<g style="mix-blend-mode:multiply" opacity="0.2">
<path fill-rule="evenodd" clip-rule="evenodd" d="M110.577 71.3382L111.317 75.27L115.327 75.5531L115.107 71.5427L110.577 71.3382Z" fill="#B67C3E"/>
</g>
<g style="mix-blend-mode:multiply" opacity="0.2">
<path fill-rule="evenodd" clip-rule="evenodd" d="M110.011 70.5833C110.011 70.5833 124.04 71.4955 133.272 69.0577C133.272 69.0577 122.75 66.62 110.011 70.5833Z" fill="#EA863E"/>
</g>
<path fill-rule="evenodd" clip-rule="evenodd" d="M111.757 70.6619C111.757 70.6619 121.744 67.831 132.58 69.215L133.256 69.042C133.256 69.042 124.433 66.5257 109.996 70.5676L111.741 70.6462L111.757 70.6619Z" fill="url(#paint52_radial_4_102102)"/>
<path fill-rule="evenodd" clip-rule="evenodd" d="M206.198 67.9412C206.198 67.9412 221.643 67.2178 233.438 75.4273C233.438 75.4273 219.378 75.16 206.198 67.9412Z" fill="url(#paint53_radial_4_102102)"/>
<path fill-rule="evenodd" clip-rule="evenodd" d="M206.199 67.941L205.916 72.1087C205.916 72.1087 217.679 78.5883 231.205 79.3275L233.438 75.4114C233.438 75.4114 220.526 75.2384 206.199 67.9253V67.941Z" fill="url(#paint54_radial_4_102102)"/>
<g style="mix-blend-mode:soft-light">
<path fill-rule="evenodd" clip-rule="evenodd" d="M225.401 74.4521L223.97 78.4154L226.219 78.8086L228.295 74.924L225.401 74.4521Z" fill="#FFFFC5"/>
</g>
<g style="mix-blend-mode:soft-light">
<path fill-rule="evenodd" clip-rule="evenodd" d="M207.567 68.6647L206.954 72.6436L208.416 73.3356L209.014 69.3724L207.567 68.6647Z" fill="#FF9F31"/>
</g>
<g style="mix-blend-mode:multiply" opacity="0.2">
<path fill-rule="evenodd" clip-rule="evenodd" d="M209.014 69.3723L208.416 73.3356L212.128 74.9083L213.229 71.0551L209.014 69.3723Z" fill="#B67C3E"/>
</g>
<g style="mix-blend-mode:multiply" opacity="0.2">
<path fill-rule="evenodd" clip-rule="evenodd" d="M208.715 68.4603C208.715 68.4603 221.674 73.9176 231.189 74.6253C231.189 74.6253 222.036 68.8692 208.715 68.4603Z" fill="#EA863E"/>
</g>
<path fill-rule="evenodd" clip-rule="evenodd" d="M210.351 69.1208C210.351 69.1208 220.715 69.7027 230.513 74.5781L231.205 74.641C231.205 74.641 223.687 69.3724 208.731 68.476L210.351 69.1208Z" fill="url(#paint55_radial_4_102102)"/>
<path fill-rule="evenodd" clip-rule="evenodd" d="M121.618 63.3488C121.618 63.3488 138.147 60.282 152.066 67.3749C152.066 67.3749 136.889 69.1678 121.618 63.3488Z" fill="url(#paint56_radial_4_102102)"/>
<path fill-rule="evenodd" clip-rule="evenodd" d="M121.618 63.3487L121.933 67.8781C121.933 67.8781 135.552 73.1152 150.242 71.92L152.066 67.3748C152.066 67.3748 138.132 69.0891 121.618 63.3487Z" fill="url(#paint57_radial_4_102102)"/>
<g style="mix-blend-mode:soft-light">
<path fill-rule="evenodd" clip-rule="evenodd" d="M143.258 67.5165L142.299 71.9987L144.784 72.0931L146.451 67.6108L143.258 67.5165Z" fill="#FFFFC5"/>
</g>
<g style="mix-blend-mode:soft-light">
<path fill-rule="evenodd" clip-rule="evenodd" d="M123.191 63.9149L123.128 68.3028L124.811 68.8375L124.858 64.4811L123.191 63.9149Z" fill="#FF9F31"/>
</g>
<g style="mix-blend-mode:multiply" opacity="0.2">
<path fill-rule="evenodd" clip-rule="evenodd" d="M124.858 64.4812L124.811 68.8376L129.025 69.9857L129.639 65.6765L124.858 64.4812Z" fill="#B67C3E"/>
</g>
<g style="mix-blend-mode:multiply" opacity="0.2">
<path fill-rule="evenodd" clip-rule="evenodd" d="M124.402 63.5532C124.402 63.5532 139.154 67.5007 149.518 66.8716C149.518 66.8716 138.808 62.0276 124.402 63.5532Z" fill="#EA863E"/>
</g>
<path fill-rule="evenodd" clip-rule="evenodd" d="M126.258 64.0093C126.258 64.0093 137.502 63.1129 148.779 66.9031L149.534 66.8717C149.534 66.8717 140.648 62.3108 124.417 63.5532L126.273 64.0093H126.258Z" fill="url(#paint58_radial_4_102102)"/>
<g style="mix-blend-mode:soft-light">
<path fill-rule="evenodd" clip-rule="evenodd" d="M121.618 63.3488C121.618 63.3488 138.147 60.282 152.066 67.3749C152.066 67.3749 136.889 69.1678 121.618 63.3488Z" fill="#FFFFC5"/>
</g>
<path fill-rule="evenodd" clip-rule="evenodd" d="M87.5846 184.275L67.3752 75.1286L280.808 75.0185L268.667 184.275H87.5846Z" fill="url(#paint59_radial_4_102102)"/>
<path fill-rule="evenodd" clip-rule="evenodd" d="M87.5844 184.275H22.2539L7.62769 73.3514L84.5491 75.1285L87.5844 184.275Z" fill="url(#paint60_linear_4_102102)"/>
<path fill-rule="evenodd" clip-rule="evenodd" d="M104.57 92.7115L262.077 90.4468L250.942 168.862H110.263L104.57 92.7115Z" fill="url(#paint61_radial_4_102102)"/>
<path fill-rule="evenodd" clip-rule="evenodd" d="M262.077 90.4468H255.724L248.442 168.862H250.942L262.077 90.4468Z" fill="url(#paint62_linear_4_102102)"/>
<path d="M196.398 92.1157L187.63 168.837L188.146 168.895L196.914 92.1746L196.398 92.1157Z" fill="#A22E39"/>
<path d="M168.883 91.7577L165.572 168.828L166.091 168.85L169.402 91.7799L168.883 91.7577Z" fill="#A22E39"/>
<path d="M194.278 112.465H169.209V112.984H194.278V112.465Z" fill="#A22E39"/>
<path d="M243.998 90.6803L235.065 168.839L235.581 168.898L244.513 90.7392L243.998 90.6803Z" fill="#A22E39"/>
<path d="M130.646 92.3496H130.127V168.862H130.646V92.3496Z" fill="#A22E39"/>
<path d="M280.67 74.8994L261.949 90.3153L262.279 90.716L281 75.3001L280.67 74.8994Z" fill="#A22E39"/>
<path d="M84.7656 74.9751L84.4231 75.3651L104.453 92.9555L104.795 92.5656L84.7656 74.9751Z" fill="#A22E39"/>
<path d="M110.144 168.689L87.4534 184.098L87.7449 184.527L110.436 169.118L110.144 168.689Z" fill="#A22E39"/>
<path d="M251.136 168.696L250.795 169.088L268.52 184.512L268.861 184.12L251.136 168.696Z" fill="#A22E39"/>
<g style="mix-blend-mode:multiply" opacity="0.2">
<path fill-rule="evenodd" clip-rule="evenodd" d="M196.652 92.1454L187.814 168.862H213.245L232.903 90.8715L196.652 92.1454Z" fill="#B67C3E"/>
</g>
<g style="mix-blend-mode:multiply" opacity="0.2">
<path fill-rule="evenodd" clip-rule="evenodd" d="M166.975 143.101L130.394 148.794V163.719L165.843 158.75L166.975 143.101Z" fill="#B67C3E"/>
</g>
<g style="mix-blend-mode:multiply" opacity="0.2">
<path fill-rule="evenodd" clip-rule="evenodd" d="M130.394 116.947L154.032 102.761L165.843 91.8307L161.376 91.7836L145.461 107.165L135.71 112.292L130.394 110.011V116.947Z" fill="#B67C3E"/>
</g>
<path style="mix-blend-mode:multiply" opacity="0.3" fill-rule="evenodd" clip-rule="evenodd" d="M280.808 75.0185L262.077 90.4468L250.942 168.862L268.667 184.275L280.808 75.0185Z" fill="url(#paint63_linear_4_102102)"/>
<path fill-rule="evenodd" clip-rule="evenodd" d="M20.9014 86.342L29.3626 174.178L78.1324 175.782L74.4051 84.7064L20.9014 86.342Z" fill="#4F1C39"/>
<path fill-rule="evenodd" clip-rule="evenodd" d="M33.1215 174.304L26.8936 86.169L74.4052 84.7064L78.1326 175.782L33.1215 174.304Z" fill="url(#paint64_linear_4_102102)"/>
<g style="mix-blend-mode:multiply" opacity="0.2">
<path fill-rule="evenodd" clip-rule="evenodd" d="M113.723 75.0971L110.263 92.6329L156.013 92.1453L156.517 75.0185L113.723 75.0971Z" fill="#B67C3E"/>
</g>
<g style="mix-blend-mode:multiply" opacity="0.2">
<path fill-rule="evenodd" clip-rule="evenodd" d="M180.406 75.1286L176.915 91.7836L182.718 91.5949L192.233 75.1286H180.406Z" fill="#B67C3E"/>
</g>
<g style="mix-blend-mode:multiply" opacity="0.2">
<path fill-rule="evenodd" clip-rule="evenodd" d="M226.927 168.862L229.176 184.275H248.441V168.862H226.927Z" fill="#B67C3E"/>
</g>
<g style="mix-blend-mode:soft-light" opacity="0.5">
<path fill-rule="evenodd" clip-rule="evenodd" d="M156.013 92.1453L156.517 75.0185L180.453 75.1286L176.915 91.7836L156.013 92.1453Z" fill="#FFFFCE"/>
</g>
<g style="mix-blend-mode:multiply" opacity="0.2">
<path fill-rule="evenodd" clip-rule="evenodd" d="M104.57 92.7115L110.263 168.862H130.394V92.3497L104.57 92.7115Z" fill="#B67C3E"/>
</g>
<path opacity="0.53" fill-rule="evenodd" clip-rule="evenodd" d="M105.199 101.063C105.199 101.063 192.595 88.3236 250.942 99.5213L244.227 168.847H251.32L261.291 90.4468L103.784 92.7272L105.199 101.063Z" fill="#47002A"/>
<path fill-rule="evenodd" clip-rule="evenodd" d="M79.9253 75.0185L85.2568 100.953L90.2895 75.1286L79.9253 75.0185Z" fill="#97362F"/>
<path fill-rule="evenodd" clip-rule="evenodd" d="M84.5491 184.275L87.2384 172.149L90.2895 184.275H84.5491Z" fill="#974342"/>
<g style="mix-blend-mode:soft-light" opacity="0.5">
<path fill-rule="evenodd" clip-rule="evenodd" d="M110.263 168.862L148.685 170.576L251.32 168.862H110.263Z" fill="#FFFFCE"/>
</g>
<g style="mix-blend-mode:multiply" opacity="0.2">
<path fill-rule="evenodd" clip-rule="evenodd" d="M268.667 184.275L251.32 168.862L262.077 90.4468L280.808 75.0185L268.667 184.275Z" fill="#B67C3E"/>
</g>
<path fill-rule="evenodd" clip-rule="evenodd" d="M175.703 91.8308L210.775 91.3276L208.164 130.598H174.304L175.703 91.8308Z" fill="url(#paint65_linear_4_102102)"/>
<path fill-rule="evenodd" clip-rule="evenodd" d="M173.707 130.598L172.244 91.878L175.704 91.8308V130.598H173.707Z" fill="#37163B"/>
<path opacity="0.53" fill-rule="evenodd" clip-rule="evenodd" d="M210.602 92.6329L175.861 93.9697L175.704 91.8308L210.775 91.3276L210.602 92.6329Z" fill="#47002A"/>
<path opacity="0.53" fill-rule="evenodd" clip-rule="evenodd" d="M168.941 91.9252L170.466 133.995H205.176L205.742 130.598H174.304L175.704 91.8308L168.941 91.9252Z" fill="#47002A"/>
<g style="mix-blend-mode:soft-light" opacity="0.5">
<path fill-rule="evenodd" clip-rule="evenodd" d="M209.737 107.118L176.411 114.211L175.861 126.808L208.778 121.445L209.737 107.118Z" fill="#A2B8CE"/>
</g>
<path fill-rule="evenodd" clip-rule="evenodd" d="M199.484 111.49L196.778 112.874L198.241 121.445H189.513L191.447 113L188.364 110.924C188.364 110.924 187.877 104.004 191.353 101.535C191.667 101.299 192.029 101.11 192.422 100.968L198.288 101.975C198.288 101.975 200.757 106.646 199.499 111.506L199.484 111.49Z" fill="#37163B"/>
<path fill-rule="evenodd" clip-rule="evenodd" d="M195.08 111.49L192.375 112.874L193.837 121.445H189.497L191.431 113L188.349 110.924C188.349 110.924 187.861 104.004 191.337 101.534L193.885 101.975C193.885 101.975 196.338 106.646 195.08 111.505V111.49Z" fill="#260A31"/>
<path fill-rule="evenodd" clip-rule="evenodd" d="M129.167 168.862L130.394 121.445L131.369 168.862H129.167Z" fill="#892E39"/>
<path fill-rule="evenodd" clip-rule="evenodd" d="M229.302 168.862L242.104 109.194L236.41 168.862H229.302Z" fill="#892E39"/>
<path fill-rule="evenodd" clip-rule="evenodd" d="M232.903 168.862L236.788 133.995L229.302 168.862H232.903Z" fill="#681C39"/>
<path d="M49.3989 174.854L39.4751 85.7916L39.7267 85.7601L49.6506 174.823L49.3989 174.854Z" fill="#4F1C39"/>
<path d="M56.8922 84.7596L56.6411 84.7756L62.4191 175.353L62.6702 175.337L56.8922 84.7596Z" fill="#4F1C39"/>
<path fill-rule="evenodd" clip-rule="evenodd" d="M48.6913 174.807L40.5132 93.9697L50.3112 174.839L48.6913 174.807Z" fill="#4F1C39"/>
<defs>
<radialGradient id="paint0_radial_4_102102" cx="0" cy="0" r="1" gradientUnits="userSpaceOnUse" gradientTransform="translate(194.765 0.613358) scale(75.0656 75.0656)">
<stop offset="0.02" stop-color="#D6771A"/>
<stop offset="1" stop-color="#E06036"/>
</radialGradient>
<linearGradient id="paint1_linear_4_102102" x1="43.2968" y1="73.3513" x2="43.2968" y2="0" gradientUnits="userSpaceOnUse">
<stop offset="0.02" stop-color="#812D40"/>
<stop offset="1" stop-color="#7F2F36"/>
</linearGradient>
<radialGradient id="paint2_radial_4_102102" cx="0" cy="0" r="1" gradientUnits="userSpaceOnUse" gradientTransform="translate(215.677 25.9058) rotate(-3.84) scale(4.79677 4.3171)">
<stop stop-color="#FFA401"/>
<stop offset="1" stop-color="#EF7800"/>
</radialGradient>
<radialGradient id="paint3_radial_4_102102" cx="0" cy="0" r="1" gradientUnits="userSpaceOnUse" gradientTransform="translate(225.583 30.9437) rotate(-3.84) scale(4.79677 4.3171)">
<stop stop-color="#FFA401"/>
<stop offset="1" stop-color="#EF7800"/>
</radialGradient>
<radialGradient id="paint4_radial_4_102102" cx="0" cy="0" r="1" gradientUnits="userSpaceOnUse" gradientTransform="translate(199.92 30.4533) rotate(-3.84) scale(4.79677 4.3171)">
<stop stop-color="#FFA401"/>
<stop offset="1" stop-color="#EF7800"/>
</radialGradient>
<radialGradient id="paint5_radial_4_102102" cx="0" cy="0" r="1" gradientUnits="userSpaceOnUse" gradientTransform="translate(-48.8454 17.8529) rotate(10.87) scale(4.84473 4.3171)">
<stop stop-color="#FFED01"/>
<stop offset="1" stop-color="#EF9300"/>
</radialGradient>
<radialGradient id="paint6_radial_4_102102" cx="0" cy="0" r="1" gradientUnits="userSpaceOnUse" gradientTransform="translate(174.839 88.2278) scale(4.79678 4.36507)">
<stop stop-color="#FFED01"/>
<stop offset="1" stop-color="#EF9300"/>
</radialGradient>
<radialGradient id="paint7_radial_4_102102" cx="0" cy="0" r="1" gradientUnits="userSpaceOnUse" gradientTransform="translate(-74.1469 17.2478) rotate(9.98001) scale(4.79677 4.3171)">
<stop stop-color="#FFA401"/>
<stop offset="1" stop-color="#EF7800"/>
</radialGradient>
<radialGradient id="paint8_radial_4_102102" cx="0" cy="0" r="1" gradientUnits="userSpaceOnUse" gradientTransform="translate(177.013 72.9968) rotate(-3.49) scale(4.79677 4.36507)">
<stop stop-color="#FFA401"/>
<stop offset="1" stop-color="#EF7800"/>
</radialGradient>
<radialGradient id="paint9_radial_4_102102" cx="0" cy="0" r="1" gradientUnits="userSpaceOnUse" gradientTransform="translate(479.854 -79.6174) rotate(-21.45) scale(4.89272 4.26913)">
<stop stop-color="#FFA401"/>
<stop offset="1" stop-color="#EF7800"/>
</radialGradient>
<radialGradient id="paint10_radial_4_102102" cx="0" cy="0" r="1" gradientUnits="userSpaceOnUse" gradientTransform="translate(487.537 -78.5304) rotate(-21.45) scale(4.89271 4.26913)">
<stop stop-color="#FFA401"/>
<stop offset="1" stop-color="#EF7800"/>
</radialGradient>
<radialGradient id="paint11_radial_4_102102" cx="0" cy="0" r="1" gradientUnits="userSpaceOnUse" gradientTransform="translate(174.839 94.0382) scale(4.79678 4.36507)">
<stop stop-color="#FFED01"/>
<stop offset="1" stop-color="#EF9300"/>
</radialGradient>
<radialGradient id="paint12_radial_4_102102" cx="0" cy="0" r="1" gradientUnits="userSpaceOnUse" gradientTransform="translate(152.852 82.2454) scale(4.79678 4.36506)">
<stop stop-color="#FFED01"/>
<stop offset="1" stop-color="#EF9300"/>
</radialGradient>
<radialGradient id="paint13_radial_4_102102" cx="0" cy="0" r="1" gradientUnits="userSpaceOnUse" gradientTransform="translate(155.007 86.4387) scale(4.79678 4.36506)">
<stop stop-color="#FFA401"/>
<stop offset="1" stop-color="#EF7800"/>
</radialGradient>
<radialGradient id="paint14_radial_4_102102" cx="0" cy="0" r="1" gradientUnits="userSpaceOnUse" gradientTransform="translate(544.183 -78.3578) rotate(-21.39) scale(4.8927 4.26913)">
<stop stop-color="#FFA401"/>
<stop offset="1" stop-color="#EF7800"/>
</radialGradient>
<radialGradient id="paint15_radial_4_102102" cx="0" cy="0" r="1" gradientUnits="userSpaceOnUse" gradientTransform="translate(112.276 79.5262) scale(4.79678 4.36507)">
<stop stop-color="#FFA401"/>
<stop offset="1" stop-color="#EF7800"/>
</radialGradient>
<radialGradient id="paint16_radial_4_102102" cx="0" cy="0" r="1" gradientUnits="userSpaceOnUse" gradientTransform="translate(111.883 85.4083) scale(4.79677 4.36506)">
<stop stop-color="#FFA401"/>
<stop offset="1" stop-color="#EF7800"/>
</radialGradient>
<radialGradient id="paint17_radial_4_102102" cx="0" cy="0" r="1" gradientUnits="userSpaceOnUse" gradientTransform="translate(111.883 90.9325) scale(4.79677 4.36506)">
<stop stop-color="#FFA401"/>
<stop offset="1" stop-color="#EF7800"/>
</radialGradient>
<radialGradient id="paint18_radial_4_102102" cx="0" cy="0" r="1" gradientUnits="userSpaceOnUse" gradientTransform="translate(95.5583 81.1149) scale(4.79678 4.36507)">
<stop stop-color="#FFA401"/>
<stop offset="1" stop-color="#EF7800"/>
</radialGradient>
<radialGradient id="paint19_radial_4_102102" cx="0" cy="0" r="1" gradientUnits="userSpaceOnUse" gradientTransform="translate(90.966 86.9969) scale(4.79677 4.36507)">
<stop stop-color="#FFA401"/>
<stop offset="1" stop-color="#EF7800"/>
</radialGradient>
<radialGradient id="paint20_radial_4_102102" cx="0" cy="0" r="1" gradientUnits="userSpaceOnUse" gradientTransform="translate(-211.53 -45.5699) rotate(16.91) scale(4.84474 4.26913)">
<stop stop-color="#FFED01"/>
<stop offset="1" stop-color="#EF9300"/>
</radialGradient>
<radialGradient id="paint21_radial_4_102102" cx="0" cy="0" r="1" gradientUnits="userSpaceOnUse" gradientTransform="translate(85.4303 90.7752) scale(4.79677 4.36507)">
<stop stop-color="#FFED01"/>
<stop offset="1" stop-color="#EF9300"/>
</radialGradient>
<radialGradient id="paint22_radial_4_102102" cx="0" cy="0" r="1" gradientUnits="userSpaceOnUse" gradientTransform="translate(103.988 90.4604) scale(4.79678 4.36507)">
<stop stop-color="#FFED01"/>
<stop offset="1" stop-color="#EF9300"/>
</radialGradient>
<radialGradient id="paint23_radial_4_102102" cx="0" cy="0" r="1" gradientUnits="userSpaceOnUse" gradientTransform="translate(127.752 82.6461) scale(4.79677 4.36506)">
<stop stop-color="#FFA401"/>
<stop offset="1" stop-color="#EF7800"/>
</radialGradient>
<radialGradient id="paint24_radial_4_102102" cx="0" cy="0" r="1" gradientUnits="userSpaceOnUse" gradientTransform="translate(127.752 87.9128) scale(4.79677 4.36507)">
<stop stop-color="#FFA401"/>
<stop offset="1" stop-color="#EF7800"/>
</radialGradient>
<radialGradient id="paint25_radial_4_102102" cx="0" cy="0" r="1" gradientUnits="userSpaceOnUse" gradientTransform="translate(127.752 91.7197) scale(4.79677 4.36506)">
<stop stop-color="#FFA401"/>
<stop offset="1" stop-color="#EF7800"/>
</radialGradient>
<radialGradient id="paint26_radial_4_102102" cx="0" cy="0" r="1" gradientUnits="userSpaceOnUse" gradientTransform="translate(161.533 91.0615) scale(4.79678 4.36507)">
<stop stop-color="#FFED01"/>
<stop offset="1" stop-color="#EF9300"/>
</radialGradient>
<radialGradient id="paint27_radial_4_102102" cx="0" cy="0" r="1" gradientUnits="userSpaceOnUse" gradientTransform="translate(143.652 91.0615) scale(4.79678 4.36507)">
<stop stop-color="#FFED01"/>
<stop offset="1" stop-color="#EF9300"/>
</radialGradient>
<radialGradient id="paint28_radial_4_102102" cx="0" cy="0" r="1" gradientUnits="userSpaceOnUse" gradientTransform="translate(132.612 89.6484) scale(44.2404 23.005)">
<stop offset="0.33" stop-color="#FF960E"/>
<stop offset="0.45" stop-color="#FC910F"/>
<stop offset="0.58" stop-color="#F48515"/>
<stop offset="0.71" stop-color="#E6711E"/>
<stop offset="0.84" stop-color="#D3552B"/>
<stop offset="0.97" stop-color="#BA313C"/>
<stop offset="1" stop-color="#B52940"/>
</radialGradient>
<radialGradient id="paint29_radial_4_102102" cx="0" cy="0" r="1" gradientUnits="userSpaceOnUse" gradientTransform="translate(231.63 64.7879) scale(5.96059 4.47044)">
<stop stop-color="#FFED01"/>
<stop offset="1" stop-color="#FFB400"/>
</radialGradient>
<radialGradient id="paint30_radial_4_102102" cx="0" cy="0" r="1" gradientUnits="userSpaceOnUse" gradientTransform="translate(231.63 67.4066) scale(6.49531 4.87148)">
<stop stop-color="#FF9D01"/>
<stop offset="1" stop-color="#EC671D"/>
</radialGradient>
<radialGradient id="paint31_radial_4_102102" cx="0" cy="0" r="1" gradientUnits="userSpaceOnUse" gradientTransform="translate(224.065 69.7341) scale(8.25675)">
<stop stop-color="#FFB001"/>
<stop offset="0.43" stop-color="#EF6F0D"/>
<stop offset="1" stop-color="#D95A1D"/>
</radialGradient>
<radialGradient id="paint32_radial_4_102102" cx="0" cy="0" r="1" gradientUnits="userSpaceOnUse" gradientTransform="translate(224.851 59.185) scale(5.96059 4.47044)">
<stop stop-color="#FFED01"/>
<stop offset="1" stop-color="#FFB400"/>
</radialGradient>
<radialGradient id="paint33_radial_4_102102" cx="0" cy="0" r="1" gradientUnits="userSpaceOnUse" gradientTransform="translate(224.851 61.8037) scale(6.49531 4.87148)">
<stop stop-color="#FF9D01"/>
<stop offset="1" stop-color="#EC671D"/>
</radialGradient>
<radialGradient id="paint34_radial_4_102102" cx="0" cy="0" r="1" gradientUnits="userSpaceOnUse" gradientTransform="translate(217.287 64.1195) scale(8.25675)">
<stop stop-color="#FFB001"/>
<stop offset="0.43" stop-color="#EF6F0D"/>
<stop offset="1" stop-color="#D95A1D"/>
</radialGradient>
<radialGradient id="paint35_radial_4_102102" cx="0" cy="0" r="1" gradientUnits="userSpaceOnUse" gradientTransform="translate(208.039 64.9885) scale(5.96059 4.47044)">
<stop stop-color="#FFED01"/>
<stop offset="1" stop-color="#FFB400"/>
</radialGradient>
<radialGradient id="paint36_radial_4_102102" cx="0" cy="0" r="1" gradientUnits="userSpaceOnUse" gradientTransform="translate(208.039 67.6071) scale(6.49531 4.87148)">
<stop stop-color="#FF9D01"/>
<stop offset="1" stop-color="#EC671D"/>
</radialGradient>
<radialGradient id="paint37_radial_4_102102" cx="0" cy="0" r="1" gradientUnits="userSpaceOnUse" gradientTransform="translate(200.474 69.9229) scale(8.25675)">
<stop stop-color="#FFB001"/>
<stop offset="0.43" stop-color="#EF6F0D"/>
<stop offset="1" stop-color="#D95A1D"/>
</radialGradient>
<radialGradient id="paint38_radial_4_102102" cx="0" cy="0" r="1" gradientUnits="userSpaceOnUse" gradientTransform="translate(207.063 59.8693) scale(5.96059 4.47044)">
<stop stop-color="#FFED01"/>
<stop offset="1" stop-color="#FFB400"/>
</radialGradient>
<radialGradient id="paint39_radial_4_102102" cx="0" cy="0" r="1" gradientUnits="userSpaceOnUse" gradientTransform="translate(207.063 62.4879) scale(6.49531 4.87148)">
<stop stop-color="#FF9D01"/>
<stop offset="1" stop-color="#EC671D"/>
</radialGradient>
<radialGradient id="paint40_radial_4_102102" cx="0" cy="0" r="1" gradientUnits="userSpaceOnUse" gradientTransform="translate(199.499 64.7958) scale(8.25675)">
<stop stop-color="#FFB001"/>
<stop offset="0.43" stop-color="#EF6F0D"/>
<stop offset="1" stop-color="#D95A1D"/>
</radialGradient>
<radialGradient id="paint41_radial_4_102102" cx="0" cy="0" r="1" gradientUnits="userSpaceOnUse" gradientTransform="translate(191.494 65.8612) scale(5.96057 4.47044)">
<stop stop-color="#FFED01"/>
<stop offset="1" stop-color="#FFB400"/>
</radialGradient>
<radialGradient id="paint42_radial_4_102102" cx="0" cy="0" r="1" gradientUnits="userSpaceOnUse" gradientTransform="translate(191.494 68.4916) scale(6.49529 4.87148)">
<stop stop-color="#FF9D01"/>
<stop offset="1" stop-color="#EC671D"/>
</radialGradient>
<radialGradient id="paint43_radial_4_102102" cx="0" cy="0" r="1" gradientUnits="userSpaceOnUse" gradientTransform="translate(183.929 70.8192) scale(0.786357)">
<stop stop-color="#FFB001"/>
<stop offset="0.43" stop-color="#EF6F0D"/>
<stop offset="1" stop-color="#D95A1D"/>
</radialGradient>
<radialGradient id="paint44_radial_4_102102" cx="0" cy="0" r="1" gradientUnits="userSpaceOnUse" gradientTransform="translate(187.876 61.2846) scale(5.96059 4.47044)">
<stop stop-color="#FFED01"/>
<stop offset="1" stop-color="#FFB400"/>
</radialGradient>
<radialGradient id="paint45_radial_4_102102" cx="0" cy="0" r="1" gradientUnits="userSpaceOnUse" gradientTransform="translate(187.876 63.915) scale(6.49531 4.87148)">
<stop stop-color="#FF9D01"/>
<stop offset="1" stop-color="#EC671D"/>
</radialGradient>
<radialGradient id="paint46_radial_4_102102" cx="0" cy="0" r="1" gradientUnits="userSpaceOnUse" gradientTransform="translate(180.311 66.2268) scale(8.25675)">
<stop stop-color="#FFB001"/>
<stop offset="0.43" stop-color="#EF6F0D"/>
<stop offset="1" stop-color="#D95A1D"/>
</radialGradient>
<radialGradient id="paint47_radial_4_102102" cx="0" cy="0" r="1" gradientUnits="userSpaceOnUse" gradientTransform="translate(166.425 59.2686) rotate(-23.33) scale(5.96059 4.47044)">
<stop stop-color="#FFED01"/>
<stop offset="1" stop-color="#FFB400"/>
</radialGradient>
<radialGradient id="paint48_radial_4_102102" cx="0" cy="0" r="1" gradientUnits="userSpaceOnUse" gradientTransform="translate(167.462 61.6731) rotate(-23.33) scale(6.4953 4.87148)">
<stop stop-color="#FF9D01"/>
<stop offset="1" stop-color="#EC671D"/>
</radialGradient>
<radialGradient id="paint49_radial_4_102102" cx="0" cy="0" r="1" gradientUnits="userSpaceOnUse" gradientTransform="translate(161.621 66.7916) rotate(-23.33) scale(8.25675 8.25674)">
<stop stop-color="#FFB001"/>
<stop offset="0.43" stop-color="#EF6F0D"/>
<stop offset="1" stop-color="#D95A1D"/>
</radialGradient>
<radialGradient id="paint50_radial_4_102102" cx="0" cy="0" r="1" gradientUnits="userSpaceOnUse" gradientTransform="translate(128.698 64.1102) rotate(-3.16) scale(5.96059 4.47044)">
<stop stop-color="#FFED01"/>
<stop offset="1" stop-color="#FFB400"/>
</radialGradient>
<radialGradient id="paint51_radial_4_102102" cx="0" cy="0" r="1" gradientUnits="userSpaceOnUse" gradientTransform="translate(128.842 66.7249) rotate(-3.16) scale(6.4953 4.87148)">
<stop stop-color="#FF9D01"/>
<stop offset="1" stop-color="#EC671D"/>
</radialGradient>
<radialGradient id="paint52_radial_4_102102" cx="0" cy="0" r="1" gradientUnits="userSpaceOnUse" gradientTransform="translate(121.595 69.3331) rotate(-3.16) scale(8.25675 8.25675)">
<stop stop-color="#FFB001"/>
<stop offset="0.43" stop-color="#EF6F0D"/>
<stop offset="1" stop-color="#D95A1D"/>
</radialGradient>
<radialGradient id="paint53_radial_4_102102" cx="0" cy="0" r="1" gradientUnits="userSpaceOnUse" gradientTransform="translate(228.963 68.3083) rotate(15.94) scale(5.96058 4.47044)">
<stop stop-color="#FFED01"/>
<stop offset="1" stop-color="#FFB400"/>
</radialGradient>
<radialGradient id="paint54_radial_4_102102" cx="0" cy="0" r="1" gradientUnits="userSpaceOnUse" gradientTransform="translate(228.244 70.8259) rotate(15.94) scale(6.49531 4.87148)">
<stop stop-color="#FF9D01"/>
<stop offset="1" stop-color="#EC671D"/>
</radialGradient>
<radialGradient id="paint55_radial_4_102102" cx="0" cy="0" r="1" gradientUnits="userSpaceOnUse" gradientTransform="translate(220.157 70.981) rotate(15.94) scale(8.25673 8.25674)">
<stop stop-color="#FFB001"/>
<stop offset="0.43" stop-color="#EF6F0D"/>
<stop offset="1" stop-color="#D95A1D"/>
</radialGradient>
<radialGradient id="paint56_radial_4_102102" cx="0" cy="0" r="1" gradientUnits="userSpaceOnUse" gradientTransform="translate(145.616 60.9299) rotate(8.12001) scale(6.47957 4.85968)">
<stop stop-color="#FFED01"/>
<stop offset="1" stop-color="#FFB400"/>
</radialGradient>
<radialGradient id="paint57_radial_4_102102" cx="0" cy="0" r="1" gradientUnits="userSpaceOnUse" gradientTransform="translate(145.215 63.7439) rotate(8.12001) scale(7.06148 5.29611)">
<stop stop-color="#FF9D01"/>
<stop offset="1" stop-color="#EC671D"/>
</radialGradient>
<radialGradient id="paint58_radial_4_102102" cx="0" cy="0" r="1" gradientUnits="userSpaceOnUse" gradientTransform="translate(137.032 64.6463) rotate(8.12) scale(8.98019 8.9802)">
<stop stop-color="#FFB001"/>
<stop offset="0.43" stop-color="#EF6F0D"/>
<stop offset="1" stop-color="#D95A1D"/>
</radialGradient>
<radialGradient id="paint59_radial_4_102102" cx="0" cy="0" r="1" gradientUnits="userSpaceOnUse" gradientTransform="translate(187.2 76.6698) scale(112.622 112.622)">
<stop offset="0.02" stop-color="#D6771A"/>
<stop offset="1" stop-color="#E06036"/>
</radialGradient>
<linearGradient id="paint60_linear_4_102102" x1="47.6061" y1="184.275" x2="47.6061" y2="73.3514" gradientUnits="userSpaceOnUse">
<stop offset="0.02" stop-color="#6D435E"/>
<stop offset="1" stop-color="#7F2F36"/>
</linearGradient>
<radialGradient id="paint61_radial_4_102102" cx="0" cy="0" r="1" gradientUnits="userSpaceOnUse" gradientTransform="translate(184.826 112.122) scale(62.2008 43.5406)">
<stop offset="0.02" stop-color="#C54C1A"/>
<stop offset="1" stop-color="#CC4F29"/>
</radialGradient>
<linearGradient id="paint62_linear_4_102102" x1="255.267" y1="168.862" x2="255.267" y2="90.4468" gradientUnits="userSpaceOnUse">
<stop offset="0.02" stop-color="#6D435E"/>
<stop offset="1" stop-color="#7F2F36"/>
</linearGradient>
<linearGradient id="paint63_linear_4_102102" x1="250.942" y1="129.655" x2="280.808" y2="129.655" gradientUnits="userSpaceOnUse">
<stop stop-color="#B17781"/>
<stop offset="1" stop-color="#D1D3FF"/>
</linearGradient>
<linearGradient id="paint64_linear_4_102102" x1="52.5131" y1="175.782" x2="52.5131" y2="84.7064" gradientUnits="userSpaceOnUse">
<stop offset="0.02" stop-color="#6A2D40"/>
<stop offset="1" stop-color="#722536"/>
</linearGradient>
<linearGradient id="paint65_linear_4_102102" x1="192.547" y1="130.598" x2="192.547" y2="91.3276" gradientUnits="userSpaceOnUse">
<stop offset="0.02" stop-color="#51485E"/>
<stop offset="1" stop-color="#5C2036"/>
</linearGradient>
</defs>
</svg>
