<svg width="64" height="115" viewBox="0 0 64 115" fill="none" xmlns="http://www.w3.org/2000/svg">
<path d="M59.7884 60.5028H42.0595C38.8198 59.2084 35.2869 58.4861 31.5896 58.4861C31.3607 58.4861 31.139 58.5147 30.9102 58.5219V62.5911C31.0603 62.584 31.2105 62.5697 31.3607 62.5697C35.6731 62.5697 39.1703 66.0668 39.1703 70.3792V114.083L59.2806 92.0272C59.6096 90.2965 59.7884 88.5157 59.7884 86.6921C59.7884 86.1628 59.7741 85.6408 59.7455 85.1187H59.7955V60.51L59.7884 60.5028Z" fill="#887C97"/>
<path d="M23.543 70.3792C23.543 66.217 26.7969 62.8271 30.902 62.5911V58.5219C30.6731 58.5147 30.4514 58.4861 30.2226 58.4861C26.518 58.4861 22.9851 59.2084 19.7526 60.5028H2.0166V85.1116H2.06666C2.03806 85.6336 2.02375 86.1557 2.02375 86.6849C2.02375 89.1737 2.23115 89.7243 2.83904 92.02L23.0352 113.961C23.2068 114.004 23.3785 114.04 23.5501 114.083V70.3792H23.543Z" fill="#A39DB1"/>
<path d="M13.7458 54.3949H49.2678C51.3919 54.3949 53.1154 56.1184 53.1154 58.2425V66.8959C53.1154 69.02 51.3919 70.7435 49.2678 70.7435H13.7458C11.6217 70.7435 9.89819 69.02 9.89819 66.8959V58.2425C9.89819 56.1184 11.6217 54.3949 13.7458 54.3949Z" fill="#292D46"/>
<path d="M39.1628 114.083V70.3791C39.1628 66.0667 35.6657 62.5696 31.3533 62.5696C27.0408 62.5696 23.5437 66.0667 23.5437 70.3791V114.083H39.1628Z" fill="#615A5E"/>
<path d="M39.1628 109.684V70.3791C39.1628 66.0667 35.6657 62.5696 31.3533 62.5696C27.0408 62.5696 23.5437 66.0667 23.5437 70.3791V109.684H39.1628Z" fill="#292D46"/>
<g opacity="0.3">
<path d="M8.08812 75.6713C7.03683 75.6713 6.18579 74.8202 6.18579 73.7618V71.9667C6.18579 70.9154 7.03683 70.0573 8.08812 70.0573C9.13941 70.0573 9.9976 70.9083 9.9976 71.9667V73.7618C9.9976 74.8131 9.14656 75.6713 8.08812 75.6713Z" fill="white"/>
</g>
<g opacity="0.3">
<path d="M8.08812 88.8157C7.03683 88.8157 6.18579 87.9647 6.18579 86.9134V79.0895C6.18579 78.0383 7.03683 77.1801 8.08812 77.1801C9.13941 77.1801 9.9976 78.0311 9.9976 79.0895V86.9134C9.9976 87.9647 9.14656 88.8157 8.08812 88.8157Z" fill="white"/>
</g>
<path d="M31.5893 28.1632C15.3766 28.1632 2.23193 41.3079 2.23193 57.5206H60.9538C60.9538 41.3079 47.8092 28.1632 31.5965 28.1632H31.5893Z" fill="#A39DB1"/>
<path d="M31.2458 28.1704V57.5206H60.9537C60.9537 41.3079 47.809 28.1632 31.5963 28.1632C31.4819 28.1632 31.3674 28.1704 31.253 28.1704H31.2458Z" fill="#887C97"/>
<path d="M31.5893 19.7242C27.4127 19.7242 24.03 23.107 24.03 27.2835H39.1485C39.1485 23.107 35.7658 19.7242 31.5893 19.7242Z" fill="#A39DB1"/>
<path d="M31.5027 19.7242V27.2835H39.1478C39.1478 23.107 35.765 19.7242 31.5885 19.7242C31.5599 19.7242 31.5313 19.7242 31.5027 19.7242Z" fill="#887C97"/>
<g opacity="0.3">
<path d="M9.9907 46.986C9.62597 46.986 9.26123 46.8859 8.93941 46.6714C8.05976 46.0921 7.82376 44.9049 8.40304 44.0324C15.6977 33.0332 25.6241 31.1595 26.0389 31.088C27.0759 30.9021 28.0628 31.5958 28.2488 32.6327C28.4347 33.6697 27.7482 34.6567 26.7112 34.8426C26.611 34.8641 17.9218 36.5733 11.5784 46.1422C11.2136 46.6928 10.6057 46.9932 9.9907 46.9932V46.986Z" fill="white"/>
</g>
<path d="M31.2456 50.5833C34.5067 50.5833 37.1528 53.2294 37.1528 56.4905H25.3384C25.3384 53.2294 27.9845 50.5833 31.2456 50.5833Z" fill="#FFDB0C"/>
<path d="M31.2455 52.1854C33.6269 52.1854 35.5507 54.1164 35.5507 56.4907H26.9402C26.9402 54.1092 28.8711 52.1854 31.2455 52.1854Z" fill="#FFA30C"/>
<path d="M63.1845 58.4573C63.1845 60.3382 61.6612 61.8543 59.7875 61.8543H3.39702C1.52329 61.8543 0 60.331 0 58.4573C0 56.5836 1.52329 55.0603 3.39702 55.0603H59.7875C61.6612 55.0603 63.1845 56.5836 63.1845 58.4573Z" fill="#FFDB0C"/>
<path d="M31.2461 68.4695C36.4239 68.4695 40.6219 64.2715 40.6219 59.0938H21.8704C21.8704 64.2715 26.0684 68.4695 31.2461 68.4695Z" fill="#FFDB0C"/>
<path d="M31.2459 65.931C35.0219 65.931 38.0757 62.8701 38.0757 59.1012H24.4089C24.4089 62.8772 27.4698 65.931 31.2387 65.931H31.2459Z" fill="#FFA30C"/>
<path d="M0.0366211 58.7792C0.201108 60.5027 1.63858 61.8544 3.40503 61.8544H59.7884C61.5548 61.8544 62.9851 60.5027 63.1568 58.7792H0.0366211Z" fill="#FFAE0C"/>
<path d="M44.7766 28.1631C44.7766 29.5791 43.6323 30.7233 42.2163 30.7233H20.4897C19.0737 30.7233 17.9294 29.5791 17.9294 28.1631C17.9294 26.747 19.0737 25.6028 20.4897 25.6028H42.2163C43.6323 25.6028 44.7766 26.747 44.7766 28.1631Z" fill="#FFDB0C"/>
<path d="M17.9504 28.4064C18.0792 29.7008 19.1591 30.7235 20.4893 30.7235H42.2159C43.5461 30.7235 44.626 29.708 44.7547 28.4064H17.9504Z" fill="#FFAE0C"/>
<path d="M48.9364 8.72865C50.2146 5.89921 49.794 2.45801 47.5873 0L36.4935 9.96858C33.5165 12.1862 31.5884 15.7312 31.5884 19.7241H55.9008C55.9008 14.8682 53.0495 10.6732 48.931 8.72865H48.9364Z" fill="#FC2838"/>
<path d="M43.9064 11.9187C44.8131 9.90864 44.5181 7.46703 42.9505 5.71912L35.0739 12.7982C32.96 14.3713 31.5945 16.8894 31.5945 19.7243H48.8606C48.8606 16.2722 46.8341 13.3007 43.9118 11.9133L43.9064 11.9187Z" fill="#C91138"/>
<path d="M44.0897 101.167C43.6821 101.66 43.7465 102.397 44.2471 102.812C44.7405 103.226 45.4772 103.155 45.892 102.654L51.9065 95.3954C52.3213 94.9019 52.2497 94.1653 51.7563 93.7505C51.2628 93.3429 50.5262 93.4072 50.1114 93.9007L44.0969 101.16L44.0897 101.167Z" fill="#292D46"/>
<path d="M44.0897 93.8078C43.6821 94.3013 43.7465 95.0379 44.2471 95.4527C44.7405 95.8675 45.4772 95.796 45.892 95.2954L51.9065 88.0365C52.3213 87.543 52.2497 86.8064 51.7563 86.3916C51.2628 85.984 50.5262 86.0483 50.1114 86.5418L44.0969 93.8007L44.0897 93.8078Z" fill="#292D46"/>
<path d="M21.1615 100.973C21.5978 101.445 21.562 102.189 21.0829 102.618C20.6108 103.055 19.8671 103.019 19.438 102.547L13.0802 95.5812C12.6439 95.1091 12.6797 94.3654 13.1517 93.9363C13.6237 93.5 14.3675 93.5358 14.8037 94.0078L21.1615 100.973Z" fill="#292D46"/>
<path d="M20.8117 93.6217C21.2479 94.0937 21.2122 94.8374 20.733 95.2665C20.261 95.7028 19.5172 95.667 19.0881 95.195L12.7303 88.2293C12.2941 87.7573 12.3299 87.0136 12.8019 86.5845C13.281 86.1482 14.0176 86.184 14.4539 86.656L20.8117 93.6217Z" fill="#292D46"/>
<path d="M31.803 46.9858C31.803 47.8011 32.4681 48.4662 33.2762 48.4662C34.0843 48.4662 34.7494 47.8082 34.7494 46.9858C34.7494 46.1634 34.0915 45.5126 33.2762 45.5126C32.4609 45.5126 31.803 46.1705 31.803 46.9858Z" fill="#C2BEBE"/>
<path d="M32.3391 46.9861C32.3391 47.501 32.7539 47.9229 33.276 47.9229C33.798 47.9229 34.2128 47.501 34.2128 46.9861C34.2128 46.4711 33.7909 46.0492 33.276 46.0492C32.7611 46.0492 32.3391 46.4711 32.3391 46.9861Z" fill="#9E9797"/>
<path d="M32.7961 46.986C32.7961 47.2506 33.0107 47.4652 33.2753 47.4652C33.5399 47.4652 33.7545 47.2506 33.7545 46.986C33.7545 46.7214 33.5399 46.5068 33.2753 46.5068C33.0107 46.5068 32.7961 46.7214 32.7961 46.986Z" fill="#C2BEBE"/>
<path d="M31.803 41.3647C31.803 42.18 32.4681 42.8451 33.2762 42.8451C34.0843 42.8451 34.7494 42.1871 34.7494 41.3647C34.7494 40.5423 34.0915 39.8915 33.2762 39.8915C32.4609 39.8915 31.803 40.5494 31.803 41.3647Z" fill="#C2BEBE"/>
<path d="M32.3391 41.3648C32.3391 41.8798 32.7539 42.3017 33.276 42.3017C33.798 42.3017 34.2128 41.8798 34.2128 41.3648C34.2128 40.8499 33.7909 40.428 33.276 40.428C32.7611 40.428 32.3391 40.8428 32.3391 41.3648Z" fill="#9E9797"/>
<path d="M32.7961 41.3649C32.7961 41.6295 33.0107 41.8441 33.2753 41.8441C33.5399 41.8441 33.7545 41.6295 33.7545 41.3649C33.7545 41.1003 33.5399 40.8857 33.2753 40.8857C33.0107 40.8857 32.7961 41.1003 32.7961 41.3649Z" fill="#C2BEBE"/>
<path d="M31.803 35.7435C31.803 36.5588 32.4681 37.2239 33.2762 37.2239C34.0843 37.2239 34.7494 36.5659 34.7494 35.7435C34.7494 34.9211 34.0915 34.2703 33.2762 34.2703C32.4609 34.2703 31.803 34.9282 31.803 35.7435Z" fill="#C2BEBE"/>
<path d="M32.3391 35.7437C32.3391 36.2587 32.7539 36.6806 33.276 36.6806C33.798 36.6806 34.2128 36.2587 34.2128 35.7437C34.2128 35.2288 33.7909 34.8069 33.276 34.8069C32.7611 34.8069 32.3391 35.2217 32.3391 35.7437Z" fill="#9E9797"/>
<path d="M32.7961 35.7436C32.7961 36.0082 33.0107 36.2227 33.2753 36.2227C33.5399 36.2227 33.7545 36.0082 33.7545 35.7436C33.7545 35.479 33.5399 35.2644 33.2753 35.2644C33.0107 35.2644 32.7961 35.479 32.7961 35.7436Z" fill="#C2BEBE"/>
<path d="M27.9482 46.9858C27.9482 47.8011 28.6133 48.4662 29.4215 48.4662C30.2296 48.4662 30.8947 47.8082 30.8947 46.9858C30.8947 46.1634 30.2368 45.5126 29.4215 45.5126C28.6062 45.5126 27.9482 46.1705 27.9482 46.9858Z" fill="#C2BEBE"/>
<path d="M28.4919 46.9861C28.4919 47.501 28.9139 47.9229 29.4288 47.9229C29.9437 47.9229 30.3657 47.501 30.3657 46.9861C30.3657 46.4711 29.9437 46.0492 29.4288 46.0492C28.9139 46.0492 28.4919 46.4711 28.4919 46.9861Z" fill="#9E9797"/>
<path d="M29.4225 47.4652C29.6871 47.4652 29.9017 47.2506 29.9017 46.986C29.9017 46.7214 29.6871 46.5068 29.4225 46.5068C29.1579 46.5068 28.9434 46.7214 28.9434 46.986C28.9434 47.2506 29.1579 47.4652 29.4225 47.4652Z" fill="#C2BEBE"/>
<path d="M27.9482 41.3647C27.9482 42.18 28.6133 42.8451 29.4215 42.8451C30.2296 42.8451 30.8947 42.1871 30.8947 41.3647C30.8947 40.5423 30.2368 39.8915 29.4215 39.8915C28.6062 39.8915 27.9482 40.5494 27.9482 41.3647Z" fill="#C2BEBE"/>
<path d="M28.4919 41.3648C28.4919 41.8798 28.9139 42.3017 29.4288 42.3017C29.9437 42.3017 30.3657 41.8798 30.3657 41.3648C30.3657 40.8499 29.9437 40.428 29.4288 40.428C28.9139 40.428 28.4919 40.8428 28.4919 41.3648Z" fill="#9E9797"/>
<path d="M29.4225 41.8441C29.6871 41.8441 29.9017 41.6295 29.9017 41.3649C29.9017 41.1003 29.6871 40.8857 29.4225 40.8857C29.1579 40.8857 28.9434 41.1003 28.9434 41.3649C28.9434 41.6295 29.1579 41.8441 29.4225 41.8441Z" fill="#C2BEBE"/>
<path d="M27.9482 35.7435C27.9482 36.5588 28.6133 37.2239 29.4215 37.2239C30.2296 37.2239 30.8947 36.5659 30.8947 35.7435C30.8947 34.9211 30.2368 34.2703 29.4215 34.2703C28.6062 34.2703 27.9482 34.9282 27.9482 35.7435Z" fill="#C2BEBE"/>
<path d="M28.4919 35.7437C28.4919 36.2587 28.9139 36.6806 29.4288 36.6806C29.9437 36.6806 30.3657 36.2587 30.3657 35.7437C30.3657 35.2288 29.9437 34.8069 29.4288 34.8069C28.9139 34.8069 28.4919 35.2217 28.4919 35.7437Z" fill="#9E9797"/>
<path d="M29.4225 36.2227C29.6871 36.2227 29.9017 36.0082 29.9017 35.7436C29.9017 35.4789 29.6871 35.2644 29.4225 35.2644C29.1579 35.2644 28.9434 35.4789 28.9434 35.7436C28.9434 36.0082 29.1579 36.2227 29.4225 36.2227Z" fill="#C2BEBE"/>
</svg>
