<svg width="74" height="93" viewBox="0 0 74 93" fill="none" xmlns="http://www.w3.org/2000/svg">
<path fill-rule="evenodd" clip-rule="evenodd" d="M47.4609 45.7431L28.6015 18.9574L13.024 14.7138L15.2972 31.8954L38.8608 52.7539C38.8608 52.7539 44.7182 50.3354 47.4572 45.7484L47.4609 45.7431Z" fill="url(#paint0_radial_4_106515)"/>
<g style="mix-blend-mode:soft-light" opacity="0.5">
<path fill-rule="evenodd" clip-rule="evenodd" d="M13.024 14.7138L24.218 26.1623L43.2265 47.8807L45.518 43.4197L28.6068 18.9612L13.024 14.7138Z" fill="#FFFFCE"/>
</g>
<g style="mix-blend-mode:multiply" opacity="0.2">
<path fill-rule="evenodd" clip-rule="evenodd" d="M38.8661 52.7577L40.7406 51.9569L18.0133 32.0206C18.0133 32.0206 14.7626 21.5804 16.0092 17.9158C16.0092 17.9158 24.5269 18.531 28.1416 20.5606L47.1266 46.2677L47.4572 45.7484L28.5977 18.9627L13.1788 14.5302L15.292 31.8917L38.8556 52.7502L38.8661 52.7577Z" fill="#B67C3E"/>
</g>
<g style="mix-blend-mode:soft-light">
<path fill-rule="evenodd" clip-rule="evenodd" d="M18.0169 32.0152L15.3008 31.8901L13.1876 14.5286L16.0128 17.9104C16.0128 17.9104 15.1469 24.9299 18.0169 32.0152Z" fill="#FFFFC5"/>
</g>
<g style="mix-blend-mode:soft-light">
<path fill-rule="evenodd" clip-rule="evenodd" d="M44.5066 49.3503L24.2177 26.1623L43.8563 49.7606L44.5066 49.3503Z" fill="#FFFFC5"/>
</g>
<g style="mix-blend-mode:soft-light">
<path fill-rule="evenodd" clip-rule="evenodd" d="M22.811 38.5419L27.2219 40.0903L33.6965 45.6537L30.9031 45.7039L22.811 38.5419Z" fill="#FFFFC5"/>
</g>
<g style="mix-blend-mode:soft-light">
<path fill-rule="evenodd" clip-rule="evenodd" d="M37.0834 32.6598L38.5521 33.3417L42.5671 38.788L41.3364 38.4188L37.0834 32.6598Z" fill="#FFFFC5"/>
</g>
<g style="mix-blend-mode:soft-light" opacity="0.67">
<path fill-rule="evenodd" clip-rule="evenodd" d="M40.4984 38.2344L34.0366 37.957L24.7789 26.8246L34.4653 29.6005L40.4984 38.2344Z" fill="#FFFFC5"/>
</g>
<path opacity="0.2" fill-rule="evenodd" clip-rule="evenodd" d="M45.7766 43.1909L43.2212 47.877L42.8448 48.5384L16.0077 17.9068C16.0077 17.9068 15.4321 26.0235 18.0118 32.0116L38.8944 50.3223L36.9311 50.9803L38.8646 52.7487L44.663 49.9782L47.4594 45.7341L45.7751 43.1818L45.7766 43.1909Z" fill="#47002A"/>
<path fill-rule="evenodd" clip-rule="evenodd" d="M49.8184 53.5358C49.8184 53.5358 56.2003 60.9006 62.68 64.1391C62.68 64.1391 59.3393 69.7036 54.7613 71.1194C54.7613 71.1194 51.3383 62.7258 46.596 56.3714L49.8221 53.5305L49.8184 53.5358Z" fill="url(#paint1_linear_4_106515)"/>
<path fill-rule="evenodd" clip-rule="evenodd" d="M62.6804 64.1392L67.6955 66.0551C67.6955 66.0551 69.0137 70.77 65.4697 76.0623C65.4697 76.0623 60.8183 78.8959 55.2718 76.5217C55.2718 76.5217 55.4473 72.721 54.758 71.1248C54.758 71.1248 58.8129 69.2723 62.6767 64.1445L62.6804 64.1392Z" fill="url(#paint2_radial_4_106515)"/>
<path fill-rule="evenodd" clip-rule="evenodd" d="M65.4689 76.0622C65.4689 76.0622 61.1136 75.4832 57.5606 69.3333C57.5606 69.3333 60.0473 67.4512 62.6759 64.1444L67.691 66.0603C67.691 66.0603 69.053 71.1482 65.4651 76.0675L65.4689 76.0622Z" fill="url(#paint3_radial_4_106515)"/>
<g style="mix-blend-mode:soft-light">
<path fill-rule="evenodd" clip-rule="evenodd" d="M65.469 76.0623C60.0112 78.7897 55.2712 76.5216 55.2712 76.5216C58.5734 77.0172 61.7063 74.229 61.7063 74.229L65.469 76.0623Z" fill="#FFFFC5"/>
</g>
<g style="mix-blend-mode:multiply" opacity="0.2">
<path fill-rule="evenodd" clip-rule="evenodd" d="M67.6952 66.0552C67.6952 66.0552 65.8763 70.901 61.7066 74.2292C57.5459 77.5558 55.2715 76.5218 55.2715 76.5218C55.2715 76.5218 55.3129 72.4189 54.7576 71.1249C54.7576 71.1249 57.4774 70.2196 62.6763 64.1446C62.6763 64.1446 65.2286 65.5357 67.6914 66.0604L67.6952 66.0552Z" fill="#B67C3E"/>
</g>
<path fill-rule="evenodd" clip-rule="evenodd" d="M63.0344 73.0464L60.8723 73.4037L60.0245 75.4057C60.0245 75.4057 62.1266 75.1327 63.0344 73.0464Z" fill="#FFFF52"/>
<path fill-rule="evenodd" clip-rule="evenodd" d="M50.7847 54.6218L52.8266 51.1906C52.8266 51.1906 47.2105 54.4965 43.192 58.8941L47.4865 57.5304L47.1552 57.1035C47.1552 57.1035 48.2439 55.4322 50.2947 54.0498L50.7757 54.6233L50.7847 54.6218Z" fill="url(#paint4_radial_4_106515)"/>
<path fill-rule="evenodd" clip-rule="evenodd" d="M52.8259 51.1907L51.1126 48.0774C51.1126 48.0774 46.2214 51.1135 41.106 57.2719L43.1966 58.898C43.1966 58.898 46.8108 54.9114 52.8312 51.1945L52.8259 51.1907Z" fill="url(#paint5_radial_4_106515)"/>
<path fill-rule="evenodd" clip-rule="evenodd" d="M41.6493 57.6912L32.6824 62.8987C32.6824 62.8987 40.7025 53.7259 58.6709 39.9978L51.581 48.936L51.1073 48.0736C51.1073 48.0736 46.2011 51.2978 41.1007 57.2682L41.6493 57.6912Z" fill="url(#paint6_radial_4_106515)"/>
<path fill-rule="evenodd" clip-rule="evenodd" d="M58.6749 39.9927L53.4905 34.9601L51.7827 36.2851C51.7827 36.2851 51.2848 42.6771 43.7765 49.2825C36.2682 55.8878 29.4766 55.1369 29.4766 55.1369L28.1897 56.0945L32.6916 62.8973C32.6916 62.8973 40.3677 54.2738 58.6801 39.9964L58.6749 39.9927Z" fill="url(#paint7_radial_4_106515)"/>
<g style="mix-blend-mode:soft-light" opacity="0.5">
<path fill-rule="evenodd" clip-rule="evenodd" d="M56.3426 41.8256L52.546 35.8278L53.0217 35.3167L57.8092 40.7497L56.3426 41.8256Z" fill="#FFFFCE"/>
</g>
<path fill-rule="evenodd" clip-rule="evenodd" d="M43.9609 52.1321L38.7267 56.0838L32.6822 62.8987C32.6822 62.8987 38.4416 57.0964 43.9609 52.1321Z" fill="#FFFF52"/>
<g style="mix-blend-mode:soft-light" opacity="0.5">
<path fill-rule="evenodd" clip-rule="evenodd" d="M38.7307 56.0782L36.8169 54.4271L30.496 55.6013L29.3734 56.0165L32.69 62.8879C32.69 62.8879 35.2283 59.5962 38.7345 56.0729L38.7307 56.0782Z" fill="#FFFFCE"/>
</g>
<path fill-rule="evenodd" clip-rule="evenodd" d="M47.7783 54.7352L45.1952 56.4851L43.1948 58.8888L47.7783 54.7352Z" fill="#FFFF52"/>
<g style="mix-blend-mode:soft-light" opacity="0.5">
<path fill-rule="evenodd" clip-rule="evenodd" d="M45.1957 56.4851L43.8155 54.3087L41.4271 56.8887L43.1953 58.8889L45.1957 56.4851Z" fill="#FFFFCE"/>
</g>
<path fill-rule="evenodd" clip-rule="evenodd" d="M53.6059 57.4293C53.6059 57.4293 55.0646 62.0697 52.7303 66.691L53.2041 67.6647C53.2041 67.6647 55.3481 63.0428 54.2872 58.2013L53.6059 57.4293Z" fill="url(#paint8_radial_4_106515)"/>
<path fill-rule="evenodd" clip-rule="evenodd" d="M57.8699 61.0662C57.8699 61.0662 59.6165 65.4589 57.981 69.0448L58.7859 68.2281C58.7859 68.2281 59.7238 66.1553 58.8558 61.8011L57.8662 61.0715L57.8699 61.0662Z" fill="url(#paint9_radial_4_106515)"/>
<path fill-rule="evenodd" clip-rule="evenodd" d="M50.3032 54.0483C50.3032 54.0483 51.0584 57.2015 49.3241 60.4467L48.8866 59.7453C48.8866 59.7453 50.2981 58.3678 49.8184 54.3939L50.3032 54.0483Z" fill="url(#paint10_radial_4_106515)"/>
<g style="mix-blend-mode:multiply" opacity="0.44">
<path fill-rule="evenodd" clip-rule="evenodd" d="M51.6903 55.5465C51.6903 55.5465 57.262 60.6487 57.5066 63.9383C57.7511 67.228 53.8576 67.6618 51.9748 65.1984L54.993 71.3961C54.993 71.3961 60.2288 68.5342 62.6761 64.1445C62.6761 64.1445 56.9631 61.2461 51.6865 55.5517L51.6903 55.5465Z" fill="#89343E"/>
</g>
<path fill-rule="evenodd" clip-rule="evenodd" d="M38.8661 52.7577L37.9669 53.2608L15.1471 32.2174L15.301 31.8902L38.8661 52.7577Z" fill="#D0BBB3"/>
<path fill-rule="evenodd" clip-rule="evenodd" d="M15.147 32.2176L13.1878 14.5288L15.301 31.8903L15.147 32.2176Z" fill="#FFFF74"/>
<defs>
<radialGradient id="paint0_radial_4_106515" cx="0" cy="0" r="1" gradientUnits="userSpaceOnUse" gradientTransform="translate(18.7084 25.2988) rotate(138.606) scale(27.7891 20.8418)">
<stop stop-color="#FFC0A5"/>
<stop offset="0.48" stop-color="#B17F7A"/>
<stop offset="1" stop-color="#9C7F7A"/>
</radialGradient>
<linearGradient id="paint1_linear_4_106515" x1="47.8496" y1="55.3135" x2="59.3109" y2="68.3167" gradientUnits="userSpaceOnUse">
<stop offset="0.02" stop-color="#51485E"/>
<stop offset="1" stop-color="#5C2036"/>
</linearGradient>
<radialGradient id="paint2_radial_4_106515" cx="0" cy="0" r="1" gradientUnits="userSpaceOnUse" gradientTransform="translate(62.175 72.0798) rotate(138.606) scale(8.30112 5.31273)">
<stop stop-color="#FFED01"/>
<stop offset="1" stop-color="#FFB400"/>
</radialGradient>
<radialGradient id="paint3_radial_4_106515" cx="0" cy="0" r="1" gradientUnits="userSpaceOnUse" gradientTransform="translate(61.1939 70.6069) rotate(138.606) scale(10.2034 4.89761)">
<stop stop-color="#FF9D01"/>
<stop offset="1" stop-color="#EC671D"/>
</radialGradient>
<radialGradient id="paint4_radial_4_106515" cx="0" cy="0" r="1" gradientUnits="userSpaceOnUse" gradientTransform="translate(47.3086 59.4388) rotate(138.606) scale(2.69156 2.01867)">
<stop stop-color="#FFED01"/>
<stop offset="1" stop-color="#FFB400"/>
</radialGradient>
<radialGradient id="paint5_radial_4_106515" cx="0" cy="0" r="1" gradientUnits="userSpaceOnUse" gradientTransform="translate(45.9735 58.2283) rotate(138.606) scale(3.49386 2.62039)">
<stop stop-color="#FF9D01"/>
<stop offset="1" stop-color="#EC671D"/>
</radialGradient>
<radialGradient id="paint6_radial_4_106515" cx="0" cy="0" r="1" gradientUnits="userSpaceOnUse" gradientTransform="translate(40.6303 60.0529) rotate(138.606) scale(7.00064 5.25048)">
<stop stop-color="#FFED01"/>
<stop offset="1" stop-color="#FFB400"/>
</radialGradient>
<radialGradient id="paint7_radial_4_106515" cx="0" cy="0" r="1" gradientUnits="userSpaceOnUse" gradientTransform="translate(38.1887 57.2828) rotate(138.606) scale(8.31408 6.23556)">
<stop stop-color="#FF9D01"/>
<stop offset="1" stop-color="#EC671D"/>
</radialGradient>
<radialGradient id="paint8_radial_4_106515" cx="0" cy="0" r="1" gradientUnits="userSpaceOnUse" gradientTransform="translate(54.0879 66.3679) rotate(138.606) scale(4.5873 3.44047)">
<stop stop-color="#FF9D01"/>
<stop offset="1" stop-color="#EC671D"/>
</radialGradient>
<radialGradient id="paint9_radial_4_106515" cx="0" cy="0" r="1" gradientUnits="userSpaceOnUse" gradientTransform="translate(58.8639 68.3028) rotate(138.606) scale(3.73325 2.79994)">
<stop stop-color="#FF9D01"/>
<stop offset="1" stop-color="#EC671D"/>
</radialGradient>
<radialGradient id="paint10_radial_4_106515" cx="0" cy="0" r="1" gradientUnits="userSpaceOnUse" gradientTransform="translate(50.5111 60.2252) rotate(138.606) scale(2.67215 2.00411)">
<stop stop-color="#FF9D01"/>
<stop offset="1" stop-color="#EC671D"/>
</radialGradient>
</defs>
</svg>
